<svg width="33" height="32" viewBox="0 0 33 32" fill="none" xmlns="http://www.w3.org/2000/svg">
<path d="M23.1688 4.74699V2.66699C23.1688 2.40178 23.0634 2.14742 22.8759 1.95989C22.6883 1.77235 22.434 1.66699 22.1688 1.66699C21.9035 1.66699 21.6492 1.77235 21.4617 1.95989C21.2741 2.14742 21.1688 2.40178 21.1688 2.66699V4.66699H12.5018V2.66699C12.5018 2.40178 12.3964 2.14742 12.2089 1.95989C12.0213 1.77235 11.767 1.66699 11.5018 1.66699C11.2365 1.66699 10.9822 1.77235 10.7947 1.95989C10.6071 2.14742 10.5018 2.40178 10.5018 2.66699V4.74699C6.90176 5.07999 5.15476 7.22699 4.88676 10.414C4.88174 10.5048 4.89526 10.5957 4.92648 10.6811C4.95771 10.7665 5.00599 10.8446 5.06839 10.9108C5.1308 10.9769 5.20601 11.0297 5.28946 11.0658C5.3729 11.1019 5.46283 11.1207 5.55376 11.121H28.1138C28.2051 11.122 28.2956 11.1042 28.3797 11.0685C28.4637 11.0328 28.5395 10.9801 28.6022 10.9136C28.6648 10.8472 28.7131 10.7685 28.7438 10.6825C28.7745 10.5965 28.7871 10.5051 28.7808 10.414C28.5148 7.22699 26.7688 5.07999 23.1688 4.74699Z" fill="white"/>
<path d="M27.502 13.1201H6.16796C5.81475 13.1212 5.47631 13.262 5.22655 13.5117C4.9768 13.7615 4.83602 14.0999 4.83496 14.4531V22.6671C4.83496 26.6671 6.83496 29.3341 11.502 29.3341H22.168C26.835 29.3331 28.835 26.6671 28.835 22.6671V14.4531C28.8339 14.0999 28.6931 13.7615 28.4434 13.5117C28.1936 13.262 27.8552 13.1212 27.502 13.1201ZM13.115 24.2801C13.0516 24.3375 12.9848 24.3909 12.915 24.4401C12.8407 24.4906 12.7599 24.531 12.675 24.5601C12.5994 24.5986 12.5185 24.6256 12.435 24.6401C12.3468 24.6557 12.2575 24.6647 12.168 24.6671C11.9936 24.6651 11.8213 24.6288 11.661 24.5601C11.4978 24.4957 11.3484 24.4006 11.221 24.2801C10.9732 24.0274 10.8344 23.6876 10.8344 23.3336C10.8344 22.9797 10.9732 22.6399 11.221 22.3871C11.3484 22.2666 11.4978 22.1715 11.661 22.1071C11.904 22.0007 12.1742 21.9727 12.434 22.0271C12.5175 22.0416 12.5984 22.0686 12.674 22.1071C12.7589 22.1363 12.8397 22.1766 12.914 22.2271L13.114 22.3871C13.3617 22.6399 13.5005 22.9797 13.5005 23.3336C13.5005 23.6876 13.3627 24.0274 13.115 24.2801ZM13.115 19.6131C12.8622 19.8609 12.5224 19.9997 12.1685 19.9997C11.8145 19.9997 11.4747 19.8609 11.222 19.6131C10.9742 19.3604 10.8354 19.0206 10.8354 18.6666C10.8354 18.3127 10.9742 17.9729 11.222 17.7201C11.4093 17.535 11.6474 17.4096 11.906 17.3598C12.1646 17.31 12.4322 17.3379 12.675 17.4401C12.8398 17.5013 12.9897 17.5968 13.115 17.7201C13.3627 17.9729 13.5015 18.3127 13.5015 18.6666C13.5015 19.0206 13.3627 19.3604 13.115 19.6131ZM17.782 24.2801C17.5288 24.5205 17.1917 24.6526 16.8426 24.648C16.4935 24.6435 16.16 24.5028 15.9131 24.256C15.6662 24.0091 15.5255 23.6756 15.521 23.3265C15.5165 22.9773 15.6485 22.6403 15.889 22.3871C16.1421 22.1467 16.4792 22.0147 16.8283 22.0192C17.1774 22.0237 17.5109 22.1644 17.7578 22.4113C18.0047 22.6581 18.1454 22.9917 18.1499 23.3408C18.1544 23.6899 18.0224 24.0269 17.782 24.2801ZM17.782 19.6131L17.582 19.7731C17.5077 19.8236 17.4269 19.864 17.342 19.8931C17.2664 19.9316 17.1855 19.9586 17.102 19.9731C17.0138 19.9887 16.9245 19.9977 16.835 20.0001C16.6594 20.0019 16.4853 19.9686 16.3228 19.9022C16.1603 19.8358 16.0126 19.7377 15.8885 19.6136C15.7644 19.4894 15.6663 19.3418 15.5999 19.1793C15.5335 19.0168 15.5002 18.8427 15.502 18.6671C15.5069 18.3139 15.6451 17.9757 15.889 17.7201C16.0142 17.5968 16.1642 17.5013 16.329 17.4401C16.5717 17.3379 16.8393 17.31 17.0979 17.3598C17.3565 17.4096 17.5946 17.535 17.782 17.7201C18.0297 17.9729 18.1685 18.3127 18.1685 18.6666C18.1685 19.0206 18.0297 19.3604 17.782 19.6131ZM22.449 24.2801C22.1969 24.5264 21.858 24.6634 21.5056 24.6614C21.1532 24.6594 20.8158 24.5186 20.5666 24.2695C20.3173 24.0204 20.1763 23.6831 20.1742 23.3307C20.172 22.9783 20.3088 22.6393 20.555 22.3871C20.8081 22.1467 21.1452 22.0147 21.4943 22.0192C21.8434 22.0237 22.1769 22.1644 22.4238 22.4113C22.6707 22.6581 22.8114 22.9917 22.8159 23.3408C22.8204 23.6899 22.6894 24.0269 22.449 24.2801ZM22.449 19.6131L22.249 19.7731C22.1747 19.8236 22.0939 19.864 22.009 19.8931C21.9334 19.9316 21.8525 19.9586 21.769 19.9731C21.6807 19.9881 21.5915 19.9971 21.502 20.0001C21.3264 20.0019 21.1523 19.9686 20.9898 19.9022C20.8273 19.8358 20.6796 19.7377 20.5555 19.6136C20.4314 19.4894 20.3333 19.3418 20.2669 19.1793C20.2005 19.0168 20.1672 18.8427 20.169 18.6671C20.1736 18.3141 20.3115 17.9758 20.555 17.7201C20.6824 17.5996 20.8318 17.5045 20.995 17.4401C21.238 17.3337 21.5082 17.3057 21.768 17.3601C21.8515 17.3746 21.9324 17.4016 22.008 17.4401C22.0929 17.4693 22.1737 17.5096 22.248 17.5601L22.448 17.7201C22.6957 17.9729 22.8345 18.3127 22.8345 18.6666C22.8345 19.0206 22.6967 19.3604 22.449 19.6131Z" fill="white"/>
</svg>
