<svg width="20" height="20" viewBox="0 0 20 20" fill="none" xmlns="http://www.w3.org/2000/svg">
<g id="Cancle">
<path id="CAncle" d="M11.939 9.64396L18.81 2.77095C18.9616 2.62079 19.082 2.44214 19.1644 2.24529C19.2467 2.04844 19.2894 1.83725 19.2899 1.62386C19.2904 1.41047 19.2488 1.19908 19.1673 1.00184C19.0859 0.804592 18.9663 0.625382 18.8154 0.474492C18.6645 0.323602 18.4853 0.204005 18.2881 0.122578C18.0908 0.0411522 17.8794 -0.000503439 17.6661 4.59147e-06C17.4527 0.000512622 17.2415 0.0431741 17.0446 0.125539C16.8478 0.207903 16.6691 0.328348 16.519 0.479955L9.64496 7.35396L2.77095 0.479955C2.62079 0.328348 2.44214 0.207903 2.24529 0.125539C2.04844 0.0431741 1.83725 0.000512622 1.62386 4.59147e-06C1.41047 -0.000503439 1.19908 0.0411522 1.00184 0.122578C0.804592 0.204005 0.625378 0.323602 0.474488 0.474492C0.323598 0.625382 0.204005 0.804592 0.122578 1.00184C0.0411522 1.19908 -0.000503439 1.41047 4.59147e-06 1.62386C0.000512622 1.83725 0.0431741 2.04844 0.125539 2.24529C0.207903 2.44214 0.328348 2.62079 0.479955 2.77095L7.35296 9.64396L0.479955 16.518C0.176547 16.8223 0.00646453 17.2347 0.00712091 17.6644C0.00777729 18.0942 0.179119 18.506 0.483455 18.8095C0.78779 19.1129 1.20019 19.2829 1.62993 19.2823C2.05967 19.2816 2.47155 19.1103 2.77495 18.806L9.64896 11.932L16.522 18.806C16.6692 18.9691 16.848 19.1006 17.0476 19.1925C17.2473 19.2843 17.4635 19.3346 17.6832 19.3403C17.9029 19.3459 18.1214 19.3068 18.3255 19.2253C18.5296 19.1439 18.7149 19.0217 18.8703 18.8663C19.0257 18.7109 19.1479 18.5256 19.2293 18.3215C19.3108 18.1174 19.3499 17.8989 19.3443 17.6792C19.3386 17.4595 19.2883 17.2433 19.1965 17.0436C19.1046 16.844 18.9731 16.6652 18.81 16.518L11.939 9.64396Z" fill="white"/>
</g>
</svg>
