<svg width="33" height="29" viewBox="0 0 33 29" fill="none" xmlns="http://www.w3.org/2000/svg">
<path d="M31.5871 28.7385L27.1871 27.2755C26.9378 27.1967 26.6678 27.2172 26.4331 27.3325C24.1876 28.4713 21.6301 28.8406 19.1541 28.3835C16.7313 27.937 14.5198 26.7137 12.8541 24.8985C13.5628 24.8812 14.2694 24.8124 14.9681 24.6925C17.628 24.208 20.0793 22.9307 22.0003 21.0281C23.9213 19.1255 25.2221 16.6866 25.7321 14.0315C26.2245 11.4263 25.9465 8.73403 24.9321 6.28446C26.4898 6.81297 27.9152 7.67113 29.1112 8.80043C30.3072 9.92972 31.2456 11.3036 31.8625 12.8284C32.4794 14.3533 32.7603 15.9932 32.686 17.6364C32.6118 19.2796 32.1841 20.8875 31.4321 22.3505C31.3705 22.4651 31.3327 22.5909 31.3208 22.7204C31.309 22.85 31.3234 22.9806 31.3631 23.1045L32.8261 27.4925C32.8844 27.6659 32.8932 27.8522 32.8513 28.0303C32.8095 28.2085 32.7188 28.3714 32.5894 28.5008C32.4601 28.6302 32.2971 28.7209 32.119 28.7627C31.9408 28.8045 31.7546 28.7958 31.5811 28.7375L31.5871 28.7385ZM23.7491 13.6605C23.4083 15.396 22.6695 17.0288 21.5909 18.4306C20.5123 19.8324 19.1233 20.9648 17.533 21.739C15.9427 22.5131 14.1945 22.9079 12.4259 22.8922C10.6573 22.8765 8.91638 22.4507 7.34011 21.6485C7.22481 21.5885 7.09855 21.5525 6.96895 21.5427C6.83935 21.5329 6.70911 21.5495 6.58611 21.5915L2.18611 23.0545C2.01275 23.1116 1.82694 23.1194 1.64938 23.0772C1.47181 23.0349 1.30946 22.9442 1.18039 22.8152C1.05133 22.6861 0.960624 22.5238 0.918376 22.3462C0.876129 22.1686 0.884003 21.9828 0.941112 21.8095L2.40411 17.4215C2.44392 17.2976 2.45833 17.167 2.44648 17.0374C2.43462 16.9079 2.39674 16.782 2.33511 16.6675C1.50213 15.0425 1.07 13.2419 1.07479 11.4159C1.07959 9.58996 1.52118 7.79163 2.36268 6.17111C3.20419 4.55059 4.42119 3.15491 5.91206 2.10062C7.40293 1.04634 9.1244 0.364037 10.9327 0.110699C12.7411 -0.142639 14.5837 0.0403365 16.3069 0.644348C18.0301 1.24836 19.5838 2.25588 20.8382 3.58277C22.0927 4.90966 23.0114 6.51741 23.5178 8.27178C24.0242 10.0261 24.1035 11.8762 23.7491 13.6675V13.6605ZM14.2491 13.9915C14.2486 13.7219 14.1413 13.4635 13.9507 13.2729C13.76 13.0823 13.5017 12.975 13.2321 12.9745H7.54211C7.27238 12.9745 7.01371 13.0816 6.82299 13.2723C6.63226 13.4631 6.52511 13.7217 6.52511 13.9915C6.52511 14.2612 6.63226 14.5199 6.82299 14.7106C7.01371 14.9013 7.27238 15.0085 7.54211 15.0085H13.2321C13.3664 15.0087 13.4993 14.9825 13.6234 14.9312C13.7474 14.8799 13.8601 14.8046 13.955 14.7097C14.0499 14.6147 14.1251 14.5019 14.1762 14.3778C14.2274 14.2537 14.2535 14.1207 14.2531 13.9865L14.2491 13.9915ZM18.3141 9.93046C18.3136 9.6609 18.2063 9.40253 18.0157 9.21192C17.825 9.02131 17.5667 8.91399 17.2971 8.91346H7.55011C7.28039 8.91346 7.02171 9.02061 6.83098 9.21133C6.64026 9.40205 6.53311 9.66074 6.53311 9.93046C6.53311 10.2002 6.64026 10.4589 6.83098 10.6496C7.02171 10.8403 7.28039 10.9475 7.55011 10.9475H17.2971C17.5667 10.9469 17.825 10.8396 18.0157 10.649C18.2063 10.4584 18.3136 10.2 18.3141 9.93046Z" fill="white"/>
</svg>
