<svg width="43" height="27" viewBox="0 0 43 27" fill="none" xmlns="http://www.w3.org/2000/svg">
<path d="M10.814 1.607H32.175C32.3733 1.58838 32.5576 1.49642 32.6918 1.34911C32.8259 1.2018 32.9002 1.00973 32.9002 0.810499C32.9002 0.611267 32.8259 0.4192 32.6918 0.271887C32.5576 0.124573 32.3733 0.0326139 32.175 0.0139978H10.814C10.7031 0.0035924 10.5913 0.0164519 10.4857 0.051748C10.38 0.0870442 10.283 0.144002 10.2006 0.218977C10.1183 0.293951 10.0525 0.385292 10.0075 0.48715C9.96248 0.589008 9.93923 0.699139 9.93923 0.810499C9.93923 0.921859 9.96248 1.03199 10.0075 1.13385C10.0525 1.23571 10.1183 1.32705 10.2006 1.40202C10.283 1.477 10.38 1.53395 10.4857 1.56925C10.5913 1.60455 10.7031 1.61741 10.814 1.607ZM7.08998 17.407C7.89167 17.4059 8.66022 17.087 9.2271 16.5201C9.79399 15.9532 10.1129 15.1847 10.114 14.383V13.177C10.114 12.3749 9.79533 11.6056 9.22813 11.0384C8.66092 10.4711 7.89163 10.1525 7.08948 10.1525C6.28733 10.1525 5.51804 10.4711 4.95084 11.0384C4.38363 11.6056 4.06498 12.3749 4.06498 13.177V14.383C4.06472 15.1857 4.38321 15.9557 4.95045 16.5237C5.51769 17.0917 6.28725 17.4112 7.08998 17.412V17.407ZM5.65898 13.177C5.65898 12.7975 5.80975 12.4335 6.07811 12.1651C6.34648 11.8968 6.71046 11.746 7.08998 11.746C7.46951 11.746 7.83349 11.8968 8.10185 12.1651C8.37022 12.4335 8.52098 12.7975 8.52098 13.177V14.383C8.52098 14.7625 8.37022 15.1265 8.10185 15.3949C7.83349 15.6632 7.46951 15.814 7.08998 15.814C6.71046 15.814 6.34648 15.6632 6.07811 15.3949C5.80975 15.1265 5.65898 14.7625 5.65898 14.383V13.177ZM7.08698 18.067C5.42836 18.0696 3.83851 18.7301 2.66625 19.9035C1.49398 21.0769 0.835042 22.6674 0.833984 24.326C0.834411 24.4768 0.877442 24.6244 0.958122 24.7518C1.0388 24.8792 1.15384 24.9812 1.28998 25.046C3.09098 25.9459 5.07667 26.4144 7.08998 26.4144C9.10329 26.4144 11.089 25.9459 12.89 25.046C13.0261 24.9812 13.1412 24.8792 13.2218 24.7518C13.3025 24.6244 13.3456 24.4768 13.346 24.326C13.3428 22.6674 12.6822 21.0776 11.509 19.9051C10.3358 18.7327 8.74563 18.0731 7.08698 18.071V18.067ZM2.45498 23.824C2.57641 22.6791 3.11718 21.6196 3.97313 20.8497C4.82908 20.0797 5.93967 19.6537 7.09098 19.6537C8.24229 19.6537 9.35288 20.0797 10.2088 20.8497C11.0648 21.6196 11.6056 22.6791 11.727 23.824C10.2716 24.488 8.69072 24.8321 7.09103 24.8329C5.49133 24.8338 3.91007 24.4914 2.45398 23.829L2.45498 23.824ZM16.537 12.48H26.387C26.5853 12.4614 26.7696 12.3694 26.9038 12.2221C27.0379 12.0748 27.1122 11.8827 27.1122 11.6835C27.1122 11.4843 27.0379 11.2922 26.9038 11.1449C26.7696 10.9976 26.5853 10.9056 26.387 10.887H16.537C16.4261 10.8766 16.3143 10.8895 16.2087 10.9247C16.103 10.96 16.006 11.017 15.9236 11.092C15.8413 11.167 15.7755 11.2583 15.7305 11.3601C15.6855 11.462 15.6622 11.5721 15.6622 11.6835C15.6622 11.7949 15.6855 11.905 15.7305 12.0068C15.7755 12.1087 15.8413 12.2 15.9236 12.275C16.006 12.35 16.103 12.407 16.2087 12.4423C16.3143 12.4775 16.4261 12.4904 16.537 12.48ZM41.359 15.29H16.537C16.4261 15.2796 16.3143 15.2924 16.2087 15.3277C16.103 15.363 16.006 15.42 15.9236 15.495C15.8413 15.57 15.7755 15.6613 15.7305 15.7632C15.6855 15.865 15.6622 15.9751 15.6622 16.0865C15.6622 16.1979 15.6855 16.308 15.7305 16.4098C15.7755 16.5117 15.8413 16.603 15.9236 16.678C16.006 16.753 16.103 16.81 16.2087 16.8453C16.3143 16.8806 16.4261 16.8934 16.537 16.883H41.358C41.4689 16.8934 41.5807 16.8806 41.6863 16.8453C41.7919 16.81 41.889 16.753 41.9713 16.678C42.0537 16.603 42.1195 16.5117 42.1645 16.4098C42.2095 16.308 42.2327 16.1979 42.2327 16.0865C42.2327 15.9751 42.2095 15.865 42.1645 15.7632C42.1195 15.6613 42.0537 15.57 41.9713 15.495C41.889 15.42 41.7919 15.363 41.6863 15.3277C41.5807 15.2924 41.4689 15.2796 41.358 15.29H41.359ZM16.537 21.29H26.387C26.4979 21.3004 26.6097 21.2876 26.7153 21.2523C26.8209 21.217 26.918 21.16 27.0003 21.085C27.0827 21.01 27.1485 20.9187 27.1935 20.8168C27.2385 20.715 27.2617 20.6049 27.2617 20.4935C27.2617 20.3821 27.2385 20.272 27.1935 20.1701C27.1485 20.0683 27.0827 19.9769 27.0003 19.902C26.918 19.827 26.8209 19.77 26.7153 19.7347C26.6097 19.6994 26.4979 19.6866 26.387 19.697H16.537C16.4261 19.6866 16.3143 19.6994 16.2087 19.7347C16.103 19.77 16.006 19.827 15.9236 19.902C15.8413 19.9769 15.7755 20.0683 15.7305 20.1701C15.6855 20.272 15.6622 20.3821 15.6622 20.4935C15.6622 20.6049 15.6855 20.715 15.7305 20.8168C15.7755 20.9187 15.8413 21.01 15.9236 21.085C16.006 21.16 16.103 21.217 16.2087 21.2523C16.3143 21.2876 16.4261 21.3004 16.537 21.29ZM41.359 24.1H16.537C16.4261 24.0896 16.3143 24.1025 16.2087 24.1378C16.103 24.173 16.006 24.23 15.9236 24.305C15.8413 24.3799 15.7755 24.4713 15.7305 24.5731C15.6855 24.675 15.6622 24.7851 15.6622 24.8965C15.6622 25.0079 15.6855 25.118 15.7305 25.2198C15.7755 25.3217 15.8413 25.413 15.9236 25.488C16.006 25.563 16.103 25.62 16.2087 25.6553C16.3143 25.6906 16.4261 25.7034 16.537 25.693H41.358C41.4689 25.7034 41.5807 25.6906 41.6863 25.6553C41.7919 25.62 41.889 25.563 41.9713 25.488C42.0537 25.413 42.1195 25.3217 42.1645 25.2198C42.2095 25.118 42.2327 25.0079 42.2327 24.8965C42.2327 24.7851 42.2095 24.675 42.1645 24.5731C42.1195 24.4713 42.0537 24.3799 41.9713 24.305C41.889 24.23 41.7919 24.173 41.6863 24.1378C41.5807 24.1025 41.4689 24.0896 41.358 24.1H41.359Z" fill="black"/>
</svg>
