<svg width="18" height="19" viewBox="0 0 18 19" fill="none" xmlns="http://www.w3.org/2000/svg">
<path d="M3.03319 1.77641L9.05819 7.80041L15.0582 1.80041C15.1633 1.68874 15.2898 1.5994 15.4301 1.53772C15.5705 1.47604 15.7219 1.44328 15.8752 1.44141C16.038 1.44141 16.1993 1.47348 16.3497 1.5358C16.5002 1.59811 16.6369 1.68945 16.752 1.80459C16.8671 1.91974 16.9585 2.05644 17.0208 2.20688C17.0831 2.35732 17.1152 2.51857 17.1152 2.68141C17.118 2.83338 17.0897 2.98433 17.0321 3.12499C16.9745 3.26565 16.8888 3.39306 16.7802 3.49941L10.7182 9.49941L16.7802 15.5614C16.9846 15.7612 17.1045 16.0318 17.1152 16.3174C17.1152 16.6463 16.9845 16.9617 16.752 17.1942C16.5195 17.4268 16.2041 17.5574 15.8752 17.5574C15.7172 17.5638 15.5597 17.5374 15.4125 17.4797C15.2653 17.422 15.1317 17.3344 15.0202 17.2224L9.05819 11.1974L3.04519 17.2094C2.94043 17.3176 2.81526 17.404 2.67692 17.4636C2.53857 17.5231 2.3898 17.5547 2.23919 17.5564C1.9105 17.5561 1.59535 17.4254 1.36302 17.1929C1.1307 16.9603 1.00019 16.6451 1.00019 16.3164C0.99738 16.1644 1.02564 16.0135 1.08325 15.8728C1.14086 15.7322 1.22659 15.6048 1.33519 15.4984L7.39719 9.49841L1.33519 3.44141C1.12982 3.24067 1.00982 2.96843 1.00019 2.68141C1.00019 2.51857 1.03226 2.35732 1.09458 2.20688C1.1569 2.05644 1.24823 1.91974 1.36338 1.80459C1.59592 1.57205 1.91132 1.44141 2.24019 1.44141C2.53815 1.44514 2.8228 1.56539 3.03319 1.77641Z" fill="white" stroke="white"/>
</svg>
