<svg width="24" height="24" viewBox="0 0 24 24" fill="none" xmlns="http://www.w3.org/2000/svg">
<g id="eye">
<path id="Vector" d="M21.25 9.14993C18.94 5.51993 15.56 3.42993 12 3.42993C10.1977 3.44316 8.43491 3.95919 6.91 4.91993C5.2237 6.00017 3.80195 7.44584 2.75 9.14993C2.2584 10.0175 2 10.9977 2 11.9949C2 12.9921 2.2584 13.9723 2.75 14.8399C5.06 18.4799 8.44 20.5599 12 20.5599C13.8023 20.5467 15.5651 20.0307 17.09 19.0699C18.7763 17.9897 20.1981 16.544 21.25 14.8399C21.7416 13.9723 22 12.9921 22 11.9949C22 10.9977 21.7416 10.0175 21.25 9.14993ZM12 16.0399C11.201 16.0399 10.4199 15.803 9.7555 15.3591C9.09112 14.9151 8.57331 14.2842 8.26753 13.546C7.96175 12.8078 7.88175 11.9955 8.03763 11.2118C8.19351 10.4281 8.57829 9.70822 9.14329 9.14322C9.7083 8.57822 10.4282 8.19344 11.2118 8.03756C11.9955 7.88167 12.8078 7.96168 13.546 8.26746C14.2843 8.57324 14.9152 9.09105 15.3591 9.75543C15.8031 10.4198 16.04 11.2009 16.04 11.9999C16.0407 12.5307 15.9366 13.0563 15.7338 13.5468C15.531 14.0372 15.2335 14.4828 14.8582 14.8581C14.4829 15.2334 14.0373 15.5309 13.5468 15.7337C13.0564 15.9365 12.5307 16.0406 12 16.0399Z" fill="#B0B0B0"/>
<path id="Vector_2" d="M11.9999 9.13989C11.4357 9.14088 10.8844 9.30904 10.4156 9.62313C9.9469 9.93722 9.58174 10.3832 9.36627 10.9046C9.1508 11.4261 9.09469 11.9998 9.20501 12.5531C9.31533 13.1064 9.58714 13.6147 9.98611 14.0137C10.3851 14.4127 10.8933 14.6845 11.4467 14.7948C12 14.9051 12.5737 14.849 13.0952 14.6335C13.6166 14.4181 14.0626 14.0529 14.3767 13.5842C14.6908 13.1154 14.8589 12.5641 14.8599 11.9999C14.8603 11.6242 14.7866 11.2521 14.643 10.905C14.4994 10.5578 14.2888 10.2423 14.0231 9.97669C13.7575 9.71103 13.442 9.50038 13.0948 9.35679C12.7477 9.21321 12.3756 9.1395 11.9999 9.13989Z" fill="#B0B0B0"/>
</g>
</svg>
