<svg width="87" height="88" viewBox="0 0 87 88" fill="none" xmlns="http://www.w3.org/2000/svg">
<g id="Group 15355">
<g id="Ellipse 204" filter="url(#filter0_d_916_307)">
<circle cx="44" cy="36" r="20" fill="#F5F5F5"/>
</g>
<path id="filter" d="M32.736 29.6774H32.836C32.997 30.3082 33.3634 30.8674 33.8775 31.2667C34.3916 31.6661 35.024 31.8829 35.675 31.8829C36.326 31.8829 36.9584 31.6661 37.4725 31.2667C37.9866 30.8674 38.353 30.3082 38.514 29.6774H53.341C53.5362 29.6774 53.7234 29.5999 53.8614 29.4619C53.9995 29.3238 54.077 29.1366 54.077 28.9414C54.077 28.7462 53.9995 28.559 53.8614 28.421C53.7234 28.283 53.5362 28.2054 53.341 28.2054H38.519C38.358 27.5747 37.9916 27.0155 37.4775 26.6161C36.9634 26.2168 36.331 26 35.68 26C35.029 26 34.3966 26.2168 33.8825 26.6161C33.3684 27.0155 33.002 27.5747 32.841 28.2054H32.741C32.5458 28.2054 32.3586 28.283 32.2206 28.421C32.0825 28.559 32.005 28.7462 32.005 28.9414C32.005 29.1366 32.0825 29.3238 32.2206 29.4619C32.3586 29.5999 32.5458 29.6774 32.741 29.6774H32.736ZM35.679 27.4694C35.9702 27.4692 36.2549 27.5554 36.4971 27.717C36.7393 27.8787 36.9281 28.1085 37.0397 28.3774C37.1512 28.6464 37.1805 28.9424 37.1238 29.228C37.0672 29.5136 36.927 29.776 36.7212 29.982C36.5154 30.1879 36.2531 30.3282 35.9675 30.3851C35.682 30.442 35.386 30.4129 35.1169 30.3015C34.8479 30.1901 34.6179 30.0014 34.4561 29.7593C34.2944 29.5173 34.208 29.2326 34.208 28.9414C34.208 28.5512 34.3629 28.177 34.6388 27.9009C34.9146 27.6249 35.2888 27.4697 35.679 27.4694ZM53.341 35.5644H53.241C53.08 34.9337 52.7136 34.3745 52.1995 33.9751C51.6854 33.5758 51.053 33.359 50.402 33.359C49.751 33.359 49.1186 33.5758 48.6045 33.9751C48.0904 34.3745 47.724 34.9337 47.563 35.5644H32.736C32.5408 35.5644 32.3536 35.642 32.2156 35.78C32.0775 35.918 32 36.1052 32 36.3004C32 36.4956 32.0775 36.6828 32.2156 36.8209C32.3536 36.9589 32.5408 37.0364 32.736 37.0364H47.558C47.719 37.6672 48.0854 38.2264 48.5995 38.6257C49.1136 39.0251 49.746 39.2419 50.397 39.2419C51.048 39.2419 51.6804 39.0251 52.1945 38.6257C52.7086 38.2264 53.075 37.6672 53.236 37.0364H53.336C53.5312 37.0364 53.7184 36.9589 53.8564 36.8209C53.9945 36.6828 54.072 36.4956 54.072 36.3004C54.072 36.1052 53.9945 35.918 53.8564 35.78C53.7184 35.642 53.5312 35.5644 53.336 35.5644H53.341ZM50.4 37.7724C50.1089 37.773 49.8241 37.6873 49.5817 37.526C49.3393 37.3648 49.1502 37.1353 49.0382 36.8665C48.9262 36.5978 48.8965 36.3019 48.9527 36.0162C49.0089 35.7306 49.1486 35.468 49.354 35.2617C49.5595 35.0554 49.8215 34.9147 50.1069 34.8573C50.3923 34.7999 50.6883 34.8285 50.9575 34.9394C51.2267 35.0502 51.457 35.2384 51.6193 35.4802C51.7815 35.7219 51.8684 36.0063 51.869 36.2974C51.8694 36.4908 51.8317 36.6822 51.7581 36.861C51.6845 37.0397 51.5764 37.2022 51.44 37.3392C51.3036 37.4762 51.1415 37.5849 50.9631 37.6592C50.7846 37.7336 50.5933 37.7721 50.4 37.7724ZM53.344 42.9234H45.878C45.717 42.2927 45.3506 41.7335 44.8365 41.3341C44.3224 40.9348 43.69 40.718 43.039 40.718C42.388 40.718 41.7556 40.9348 41.2415 41.3341C40.7274 41.7335 40.361 42.2927 40.2 42.9234H32.736C32.5408 42.9234 32.3536 43.001 32.2156 43.139C32.0775 43.277 32 43.4642 32 43.6594C32 43.8546 32.0775 44.0418 32.2156 44.1799C32.3536 44.3179 32.5408 44.3954 32.736 44.3954H40.2C40.361 45.0262 40.7274 45.5854 41.2415 45.9847C41.7556 46.3841 42.388 46.6009 43.039 46.6009C43.69 46.6009 44.3224 46.3841 44.8365 45.9847C45.3506 45.5854 45.717 45.0262 45.878 44.3954H53.341C53.5362 44.3954 53.7234 44.3179 53.8614 44.1799C53.9995 44.0418 54.077 43.8546 54.077 43.6594C54.077 43.4642 53.9995 43.277 53.8614 43.139C53.7234 43.001 53.5362 42.9234 53.341 42.9234H53.344ZM43.044 45.1314C42.7529 45.1314 42.4683 45.0451 42.2262 44.8834C41.9841 44.7216 41.7955 44.4917 41.684 44.2228C41.5726 43.9538 41.5435 43.6578 41.6003 43.3723C41.6571 43.0867 41.7973 42.8244 42.0031 42.6186C42.209 42.4127 42.4713 42.2725 42.7568 42.2157C43.0424 42.1589 43.3383 42.1881 43.6073 42.2995C43.8763 42.4109 44.1062 42.5996 44.2679 42.8416C44.4297 43.0837 44.516 43.3683 44.516 43.6594C44.516 43.8533 44.4777 44.0452 44.4034 44.2241C44.329 44.4031 44.2201 44.5657 44.0827 44.7024C43.9454 44.8392 43.7824 44.9475 43.6032 45.0211C43.4239 45.0947 43.2318 45.1322 43.038 45.1314H43.044Z" fill="#D4DCE1"/>
</g>
<defs>
<filter id="filter0_d_916_307" x="0" y="0" width="88" height="88" filterUnits="userSpaceOnUse" color-interpolation-filters="sRGB">
<feFlood flood-opacity="0" result="BackgroundImageFix"/>
<feColorMatrix in="SourceAlpha" type="matrix" values="0 0 0 0 0 0 0 0 0 0 0 0 0 0 0 0 0 0 127 0" result="hardAlpha"/>
<feOffset dy="8"/>
<feGaussianBlur stdDeviation="12"/>
<feComposite in2="hardAlpha" operator="out"/>
<feColorMatrix type="matrix" values="0 0 0 0 0 0 0 0 0 0 0 0 0 0 0 0 0 0 0.12 0"/>
<feBlend mode="normal" in2="BackgroundImageFix" result="effect1_dropShadow_916_307"/>
<feBlend mode="normal" in="SourceGraphic" in2="effect1_dropShadow_916_307" result="shape"/>
</filter>
</defs>
</svg>
