<svg width="23" height="21" viewBox="0 0 23 21" fill="none" xmlns="http://www.w3.org/2000/svg">
<path d="M0.736 3.67745H0.836C0.996978 4.3082 1.36343 4.86739 1.87751 5.26675C2.39159 5.6661 3.02403 5.88289 3.675 5.88289C4.32597 5.88289 4.95841 5.6661 5.47249 5.26675C5.98657 4.86739 6.35302 4.3082 6.514 3.67745H21.341C21.5362 3.67745 21.7234 3.5999 21.8614 3.46188C21.9995 3.32385 22.077 3.13664 22.077 2.94145C22.077 2.74625 21.9995 2.55904 21.8614 2.42101C21.7234 2.28299 21.5362 2.20545 21.341 2.20545H6.519C6.35802 1.57469 5.99157 1.0155 5.47749 0.616146C4.96341 0.216787 4.33097 0 3.68 0C3.02903 0 2.39659 0.216787 1.88251 0.616146C1.36843 1.0155 1.00198 1.57469 0.841 2.20545H0.741C0.545801 2.20545 0.358596 2.28299 0.220569 2.42101C0.0825426 2.55904 0.005 2.74625 0.005 2.94145C0.005 3.13664 0.0825426 3.32385 0.220569 3.46188C0.358596 3.5999 0.545801 3.67745 0.741 3.67745H0.736ZM3.679 1.46945C3.97018 1.46925 4.25487 1.55541 4.49707 1.71704C4.73927 1.87866 4.9281 2.10849 5.03966 2.37744C5.15123 2.6464 5.18052 2.9424 5.12384 3.228C5.06715 3.51361 4.92704 3.77599 4.72121 3.98195C4.51539 4.18792 4.25311 4.32821 3.96754 4.38509C3.68197 4.44197 3.38595 4.41287 3.11692 4.30149C2.84789 4.19011 2.61794 4.00144 2.45615 3.75935C2.29436 3.51726 2.208 3.23262 2.208 2.94145C2.208 2.55122 2.36295 2.17696 2.63879 1.90094C2.91462 1.62491 3.28877 1.46971 3.679 1.46945ZM21.341 9.56445H21.241C21.08 8.93369 20.7136 8.3745 20.1995 7.97515C19.6854 7.57579 19.053 7.359 18.402 7.359C17.751 7.359 17.1186 7.57579 16.6045 7.97515C16.0904 8.3745 15.724 8.93369 15.563 9.56445H0.736C0.540801 9.56445 0.353596 9.64199 0.215569 9.78002C0.0775426 9.91804 0 10.1052 0 10.3004C0 10.4956 0.0775426 10.6828 0.215569 10.8209C0.353596 10.9589 0.540801 11.0364 0.736 11.0364H15.558C15.719 11.6672 16.0854 12.2264 16.5995 12.6257C17.1136 13.0251 17.746 13.2419 18.397 13.2419C19.048 13.2419 19.6804 13.0251 20.1945 12.6257C20.7086 12.2264 21.075 11.6672 21.236 11.0364H21.336C21.5312 11.0364 21.7184 10.9589 21.8564 10.8209C21.9945 10.6828 22.072 10.4956 22.072 10.3004C22.072 10.1052 21.9945 9.91804 21.8564 9.78002C21.7184 9.64199 21.5312 9.56445 21.336 9.56445H21.341ZM18.4 11.7724C18.1089 11.773 17.8241 11.6873 17.5817 11.526C17.3393 11.3648 17.1502 11.1353 17.0382 10.8665C16.9262 10.5978 16.8965 10.3019 16.9527 10.0162C17.0089 9.73056 17.1486 9.46799 17.354 9.26171C17.5595 9.05543 17.8215 8.9147 18.1069 8.85732C18.3923 8.79994 18.6883 8.82849 18.9575 8.93935C19.2267 9.05022 19.457 9.23842 19.6193 9.48015C19.7815 9.72189 19.8684 10.0063 19.869 10.2974C19.8694 10.4908 19.8317 10.6822 19.7581 10.861C19.6845 11.0397 19.5764 11.2022 19.44 11.3392C19.3036 11.4762 19.1415 11.5849 18.9631 11.6592C18.7846 11.7336 18.5933 11.7721 18.4 11.7724ZM21.344 16.9234H13.878C13.717 16.2927 13.3506 15.7335 12.8365 15.3341C12.3224 14.9348 11.69 14.718 11.039 14.718C10.388 14.718 9.75559 14.9348 9.24151 15.3341C8.72743 15.7335 8.36098 16.2927 8.2 16.9234H0.736C0.540801 16.9234 0.353596 17.001 0.215569 17.139C0.0775426 17.277 0 17.4642 0 17.6594C0 17.8546 0.0775426 18.0418 0.215569 18.1799C0.353596 18.3179 0.540801 18.3954 0.736 18.3954H8.2C8.36098 19.0262 8.72743 19.5854 9.24151 19.9847C9.75559 20.3841 10.388 20.6009 11.039 20.6009C11.69 20.6009 12.3224 20.3841 12.8365 19.9847C13.3506 19.5854 13.717 19.0262 13.878 18.3954H21.341C21.5362 18.3954 21.7234 18.3179 21.8614 18.1799C21.9995 18.0418 22.077 17.8546 22.077 17.6594C22.077 17.4642 21.9995 17.277 21.8614 17.139C21.7234 17.001 21.5362 16.9234 21.341 16.9234H21.344ZM11.044 19.1314C10.7529 19.1314 10.4683 19.0451 10.2262 18.8834C9.98413 18.7216 9.79546 18.4917 9.68405 18.2228C9.57264 17.9538 9.54349 17.6578 9.60028 17.3723C9.65708 17.0867 9.79728 16.8244 10.0031 16.6186C10.209 16.4127 10.4713 16.2725 10.7568 16.2157C11.0424 16.1589 11.3383 16.1881 11.6073 16.2995C11.8763 16.4109 12.1062 16.5996 12.2679 16.8416C12.4297 17.0837 12.516 17.3683 12.516 17.6594C12.516 17.8533 12.4777 18.0452 12.4034 18.2241C12.329 18.4031 12.2201 18.5657 12.0827 18.7024C11.9454 18.8392 11.7824 18.9475 11.6032 19.0211C11.4239 19.0947 11.2318 19.1322 11.038 19.1314H11.044Z" fill="#D4DCE1"/>
</svg>
