<svg width="41" height="41" viewBox="0 0 41 41" fill="none" xmlns="http://www.w3.org/2000/svg">
<rect x="0.5" y="0.5" width="40" height="40" rx="4.5" fill="#A87B5D" stroke="#A87B5D"/>
<g clip-path="url(#clip0_401_2889)">
<rect x="7.37988" y="7.38" width="26.9829" height="26.8673" rx="5" fill="#A87B5D"/>
<path d="M20.8731 34.2506L24.6664 12.9076C28.2818 12.9076 29.4224 13.3045 29.5864 14.9232C31.029 14.3575 32.2902 13.4096 33.2346 12.1811C30.2151 10.8255 26.9705 10.0412 23.6652 9.86786L20.8665 13.2782H20.8731L18.0744 9.86786C14.7696 10.0401 11.5253 10.8234 8.50586 12.1778C9.44996 13.4066 10.7113 14.3546 12.154 14.9199C12.318 13.3004 13.4587 12.9043 17.0494 12.9019L20.8731 34.2506Z" fill="#F5F5F5"/>
<path d="M20.8713 8.93401C25.2365 8.88039 29.5677 9.70642 33.6068 11.3629C33.9012 10.8912 34.1542 10.3949 34.3628 9.87947C25.6771 6.54766 16.0656 6.54766 7.37988 9.87947C7.59738 10.3906 7.84971 10.8863 8.1351 11.3629C12.1741 9.70635 16.5062 8.88032 20.8713 8.93401Z" fill="#F5F5F5"/>
</g>
<defs>
<clipPath id="clip0_401_2889">
<rect x="7.37988" y="7.38" width="26.9829" height="26.8673" rx="5" fill="white"/>
</clipPath>
</defs>
</svg>
