<svg width="26" height="22" viewBox="0 0 26 22" fill="none" xmlns="http://www.w3.org/2000/svg">
<path id="heart" d="M1.00632 7.65828C0.961302 8.81958 1.15706 9.97762 1.58127 11.0596C2.00549 12.1416 2.649 13.1241 3.47132 13.9453C5.44332 15.9173 11.9773 20.3553 12.2233 20.6023C12.4483 20.7392 12.7012 20.8236 12.9633 20.8493C13.2254 20.8236 13.4784 20.7392 13.7033 20.6023C13.9503 20.3553 20.4833 16.0413 22.4553 13.9453C23.2776 13.1241 23.9212 12.1416 24.3454 11.0596C24.7696 9.97762 24.9653 8.81958 24.9203 7.65828C24.924 6.78312 24.7544 5.91589 24.4212 5.10662C24.0881 4.29734 23.5979 3.56205 22.9791 2.94317C22.3604 2.32428 21.6251 1.83405 20.8159 1.50076C20.0067 1.16747 19.1395 0.997711 18.2643 1.00128C17.2399 1.03667 16.2381 1.31154 15.3391 1.80385C14.4401 2.29617 13.6689 2.99224 13.0873 3.83628C12.2773 2.67712 11.1184 1.80688 9.77932 1.35233C8.44026 0.897778 6.99103 0.882671 5.64278 1.30921C4.29452 1.73575 3.11769 2.58165 2.28372 3.72367C1.44975 4.8657 1.00222 6.24417 1.00632 7.65828Z" stroke="white" stroke-width="2"/>
</svg>
