<svg width="23" height="23" viewBox="0 0 23 23" fill="none" xmlns="http://www.w3.org/2000/svg">
<g id="4781829_circle_customer_help_info_information_icon">
<g id="Layer 2">
<path id="Path 1766" d="M11.7115 8.90401C11.4346 8.90401 11.164 8.8219 10.9337 8.66806C10.7035 8.51423 10.5241 8.29558 10.4181 8.03976C10.3121 7.78394 10.2844 7.50245 10.3384 7.23088C10.3924 6.95931 10.5258 6.70985 10.7216 6.51406C10.9174 6.31826 11.1668 6.18492 11.4384 6.13091C11.71 6.07689 11.9915 6.10461 12.2473 6.21057C12.5031 6.31654 12.7217 6.49598 12.8756 6.72621C13.0294 6.95644 13.1115 7.22711 13.1115 7.504C13.1115 7.68786 13.0753 7.86991 13.005 8.03976C12.9346 8.20962 12.8315 8.36395 12.7015 8.49395C12.5715 8.62396 12.4171 8.72708 12.2473 8.79744C12.0774 8.86779 11.8954 8.90401 11.7115 8.90401Z" fill="white"/>
<path id="Path 1767" d="M11.7146 20.8289C9.91166 20.8289 8.14918 20.2943 6.65006 19.2926C5.15094 18.2909 3.98252 16.8672 3.29255 15.2015C2.60258 13.5357 2.42206 11.7028 2.7738 9.93448C3.12554 8.16615 3.99376 6.54184 5.26865 5.26694C6.54355 3.99205 8.16786 3.12383 9.93619 2.77209C11.7045 2.42035 13.5374 2.60087 15.2032 3.29084C16.8689 3.98081 18.2926 5.14923 19.2943 6.64835C20.296 8.14747 20.8306 9.90995 20.8306 11.7129C20.8306 12.9101 20.5948 14.0955 20.1367 15.2015C19.6786 16.3075 19.0071 17.3124 18.1606 18.1589C17.3141 19.0054 16.3092 19.6769 15.2032 20.135C14.0972 20.5931 12.9118 20.8289 11.7146 20.8289ZM11.7146 3.99993C10.1891 3.99993 8.69792 4.45229 7.42952 5.2998C6.16113 6.14732 5.17253 7.35192 4.58875 8.76129C4.00498 10.1707 3.85223 11.7215 4.14984 13.2177C4.44745 14.7138 5.18204 16.0882 6.26072 17.1668C7.33941 18.2455 8.71373 18.9801 10.2099 19.2777C11.7061 19.5753 13.2569 19.4226 14.6663 18.8388C16.0756 18.255 17.2802 17.2664 18.1278 15.998C18.9753 14.7296 19.4276 13.2384 19.4276 11.7129C19.4279 10.6999 19.2286 9.69669 18.8411 8.76068C18.4536 7.82466 17.8855 6.97415 17.1693 6.25772C16.453 5.54129 15.6027 4.97298 14.6667 4.58524C13.7308 4.1975 12.7277 3.99793 11.7146 3.99793V3.99993Z" fill="white"/>
<path id="Path 1768" d="M11.7115 17.323C11.3402 17.323 10.9841 17.1755 10.7216 16.913C10.459 16.6504 10.3115 16.2943 10.3115 15.923V11.711C10.3115 11.3397 10.459 10.9836 10.7216 10.7211C10.9841 10.4585 11.3402 10.311 11.7115 10.311C12.0828 10.311 12.4389 10.4585 12.7015 10.7211C12.964 10.9836 13.1115 11.3397 13.1115 11.711V15.921C13.1118 16.1051 13.0758 16.2873 13.0055 16.4574C12.9353 16.6275 12.8322 16.7821 12.7022 16.9123C12.5722 17.0425 12.4177 17.1458 12.2477 17.2163C12.0778 17.2868 11.8955 17.323 11.7115 17.323Z" fill="white"/>
</g>
</g>
</svg>
