<svg width="153" height="160" viewBox="0 0 153 160" fill="none" xmlns="http://www.w3.org/2000/svg">
<mask id="mask0_2_396" style="mask-type:luminance" maskUnits="userSpaceOnUse" x="0" y="0" width="153" height="160">
<path d="M153 160V0L0 0V160H153Z" fill="white"/>
</mask>
<g mask="url(#mask0_2_396)">
<path d="M99.6328 81.9981L71.1608 53.5791L37.7958 86.4391C37.3784 86.8428 37.0454 87.3255 36.8162 87.859C36.587 88.3926 36.4662 88.9664 36.4608 89.5471V103.313H23.3378C22.7565 103.318 22.182 103.439 21.6475 103.667C21.113 103.896 20.6291 104.228 20.2238 104.645L14.4408 110.418C14.0234 110.822 13.6904 111.304 13.4612 111.838C13.232 112.372 13.1112 112.945 13.1058 113.526V126.626H4.20581C3.02798 126.628 1.89894 127.097 1.06534 127.929C0.231735 128.761 -0.238701 129.889 -0.243187 131.067V153.936L5.76281 159.931H17.7768C18.9458 159.964 20.1081 159.743 21.1833 159.283C22.2585 158.823 23.2212 158.135 24.0048 157.267L99.6328 81.9981Z" fill="#A87B5D"/>
<path d="M151.016 44.476C151.031 36.1139 148.566 27.9351 143.931 20.9748C139.297 14.0144 132.702 8.58529 124.981 5.37454C117.259 2.16379 108.759 1.3157 100.556 2.93761C92.3525 4.55952 84.8147 8.57852 78.8963 14.486C72.9779 20.3935 68.945 27.9239 67.3079 36.1242C65.6709 44.3245 66.5032 52.8262 69.6997 60.5533C72.8962 68.2804 78.3131 74.8856 85.2649 79.533C92.2167 84.1804 100.391 86.661 108.753 86.661C114.299 86.6687 119.791 85.5833 124.917 83.4669C130.043 81.3506 134.702 78.2448 138.627 74.3271C142.552 70.4093 145.666 65.7565 147.792 60.6344C149.918 55.5124 151.013 50.0217 151.016 44.476ZM108.753 32.265C108.748 29.8444 109.462 27.4768 110.804 25.4619C112.145 23.447 114.054 21.8754 116.289 20.9459C118.524 20.0164 120.985 19.7709 123.36 20.2403C125.734 20.7098 127.916 21.8731 129.63 23.5831C131.343 25.2932 132.51 27.473 132.984 29.8468C133.458 32.2206 133.217 34.6816 132.292 36.9185C131.367 39.1553 129.799 41.0673 127.786 42.4126C125.774 43.7579 123.408 44.476 120.987 44.476C117.754 44.4508 114.661 43.1568 112.372 40.8729C110.084 38.589 108.784 35.4978 108.753 32.265Z" fill="#BC8967"/>
<path d="M83.1729 105.312L103.192 85.3271L67.8249 50.0271L47.8059 70.0091C46.9493 70.9063 46.4713 72.0991 46.4713 73.3396C46.4713 74.5801 46.9493 75.7729 47.8059 76.6701L76.4999 105.312C77.4002 106.167 78.5946 106.644 79.8364 106.644C81.0782 106.644 82.2726 106.167 83.1729 105.312Z" fill="#A87B5D"/>
<path d="M106.529 32.265C106.524 29.4044 107.367 26.6064 108.952 24.2253C110.538 21.8441 112.794 19.9868 115.435 18.8884C118.077 17.7899 120.985 17.4997 123.791 18.0546C126.597 18.6094 129.176 19.9842 131.201 22.0051C133.225 24.026 134.605 26.6022 135.165 29.4075C135.725 32.2128 135.44 35.1212 134.347 37.7646C133.253 40.408 131.4 42.6677 129.022 44.2575C126.644 45.8474 123.848 46.696 120.987 46.696C119.089 46.7016 117.209 46.3323 115.454 45.6093C113.699 44.8864 112.104 43.8241 110.761 42.4833C109.417 41.1425 108.352 39.5496 107.626 37.7961C106.9 36.0426 106.527 34.163 106.529 32.265ZM130.997 32.265C131.001 30.2844 130.417 28.3472 129.319 26.6986C128.221 25.05 126.659 23.764 124.831 23.0035C123.002 22.2429 120.989 22.042 119.046 22.4261C117.103 22.8102 115.317 23.762 113.915 25.1612C112.514 26.5603 111.558 28.3439 111.171 30.2862C110.783 32.2284 110.98 34.2421 111.737 36.0723C112.494 37.9025 113.777 39.467 115.424 40.5677C117.07 41.6685 119.006 42.256 120.987 42.256C122.302 42.2626 123.605 42.0089 124.821 41.5093C126.037 41.0098 127.142 40.2744 128.073 39.3456C129.003 38.4167 129.741 37.3129 130.242 36.0976C130.744 34.8824 131.001 33.5798 130.997 32.265Z" fill="#A87B5D"/>
<path d="M64.2658 44.476C64.2498 35.6739 66.8453 27.0648 71.7238 19.7383C76.6023 12.4118 83.5446 6.69718 91.6722 3.31764C99.7997 -0.0618956 108.747 -0.954451 117.382 0.752931C126.017 2.46031 133.951 6.69089 140.181 12.9093C146.411 19.1277 150.656 27.0543 152.379 35.6862C154.102 44.318 153.226 53.267 149.861 61.4007C146.496 69.5343 140.794 76.487 133.477 81.3789C126.159 86.2708 117.555 88.882 108.753 88.882C96.9754 88.8583 85.686 84.1748 77.3505 75.8545C69.015 67.5342 64.311 56.2533 64.2658 44.476ZM148.791 44.476C148.805 36.5541 146.469 28.806 142.079 22.2122C137.688 15.6184 131.44 10.4753 124.125 7.43368C116.811 4.39211 108.758 3.5888 100.987 5.12542C93.2152 6.66204 86.0743 10.4695 80.4676 16.066C74.8608 21.6625 71.0403 28.7965 69.4895 36.5651C67.9387 44.3337 68.7274 52.3877 71.7556 59.708C74.7838 67.0282 79.9155 73.2856 86.5013 77.6883C93.0871 82.0909 100.831 84.441 108.753 84.441C119.352 84.4197 129.513 80.2045 137.015 72.7163C144.516 65.2282 148.75 55.0755 148.791 44.476Z" fill="#A87B5D"/>
<path d="M-0.240341 153.936L76.0547 77.7809C76.8748 77.0306 77.9461 76.6145 79.0577 76.6145C80.1692 76.6145 81.2405 77.0306 82.0607 77.7809C82.8123 78.5982 83.2295 79.668 83.2295 80.7784C83.2295 81.8888 82.8123 82.9586 82.0607 83.7759L5.76066 159.931L-0.240341 153.936Z" fill="#92694D"/>
</g>
</svg>
