<svg width="51" height="37" viewBox="0 0 51 37" fill="none" xmlns="http://www.w3.org/2000/svg">
<g id="license">
<path id="Path 2478" d="M50.1929 8.82104V33.3661C50.1933 33.68 50.1317 33.991 50.0118 34.2811C49.8918 34.5713 49.7158 34.8349 49.4937 35.0569C49.2717 35.2789 49.0081 35.455 48.718 35.5749C48.4278 35.6949 48.1168 35.7565 47.8029 35.7561H3.18688C2.87291 35.7565 2.56194 35.6949 2.2718 35.5749C1.98165 35.455 1.71802 35.2789 1.49601 35.0569C1.274 34.8349 1.09797 34.5713 0.978001 34.2811C0.858032 33.991 0.796482 33.68 0.796877 33.3661V8.82104H50.1929Z" fill="white"/>
<path id="Path 2479" d="M50.1929 8.8231V3.1881C50.1929 2.55423 49.9411 1.94632 49.4929 1.49811C49.0446 1.0499 48.4367 0.798096 47.8029 0.798096H3.18688C2.55301 0.798096 1.9451 1.0499 1.49689 1.49811C1.04868 1.94632 0.796875 2.55423 0.796875 3.1881V8.8231H50.1929Z" fill="#FFBB00"/>
<path id="Path 2480" d="M13.3179 17.1821V18.3881C13.3179 18.979 13.0831 19.5457 12.6653 19.9635C12.2475 20.3814 11.6808 20.6161 11.0899 20.6161C10.499 20.6161 9.93225 20.3814 9.51442 19.9635C9.09659 19.5457 8.86186 18.979 8.86186 18.3881V17.1821C8.86186 16.5912 9.09659 16.0245 9.51442 15.6067C9.93225 15.1888 10.499 14.9541 11.0899 14.9541C11.6808 14.9541 12.2475 15.1888 12.6653 15.6067C13.0831 16.0245 13.3179 16.5912 13.3179 17.1821ZM16.5499 28.3311C14.8557 29.1818 12.9861 29.6249 11.0904 29.6249C9.19458 29.6249 7.32504 29.1818 5.63086 28.3311C5.63086 26.8832 6.20605 25.4945 7.22991 24.4707C8.25376 23.4468 9.64241 22.8716 11.0904 22.8716C12.5383 22.8716 13.927 23.4468 14.9508 24.4707C15.9747 25.4945 16.5499 26.8832 16.5499 28.3311Z" fill="#A87B5D"/>
<path id="Path 2481" d="M47.803 0H3.187C2.34183 0.000794669 1.53151 0.336962 0.933975 0.934685C0.33644 1.53241 0.000529516 2.34283 0 3.188V33.367C0.000794299 34.212 0.336822 35.0222 0.934328 35.6197C1.53183 36.2172 2.342 36.5532 3.187 36.554H47.803C48.648 36.5532 49.4582 36.2172 50.0557 35.6197C50.6532 35.0222 50.9892 34.212 50.99 33.367V3.188C50.9895 2.34283 50.6536 1.53241 50.056 0.934685C49.4585 0.336962 48.6482 0.000794669 47.803 0ZM3.187 1.594H47.803C48.2249 1.59584 48.629 1.76427 48.9274 2.06261C49.2257 2.36096 49.3942 2.76507 49.396 3.187V8.023H1.593V3.188C1.59458 2.76573 1.76303 2.36121 2.06162 2.06261C2.36021 1.76402 2.76473 1.59558 3.187 1.594ZM47.803 34.96H3.187C2.76508 34.9582 2.36096 34.7897 2.06261 34.4914C1.76427 34.193 1.59584 33.7889 1.594 33.367V9.62H49.394V33.367C49.3924 33.7887 49.2244 34.1928 48.9264 34.4913C48.6285 34.7898 48.2248 34.9576 47.803 34.96Z" fill="black"/>
<path id="Path 2482" d="M14.814 5.607H36.175C36.3733 5.58838 36.5576 5.49642 36.6918 5.34911C36.8259 5.2018 36.9002 5.00973 36.9002 4.8105C36.9002 4.61127 36.8259 4.4192 36.6918 4.27189C36.5576 4.12457 36.3733 4.03261 36.175 4.014H14.814C14.7031 4.00359 14.5913 4.01645 14.4857 4.05175C14.38 4.08704 14.283 4.144 14.2006 4.21898C14.1183 4.29395 14.0525 4.38529 14.0075 4.48715C13.9625 4.58901 13.9392 4.69914 13.9392 4.8105C13.9392 4.92186 13.9625 5.03199 14.0075 5.13385C14.0525 5.23571 14.1183 5.32705 14.2006 5.40202C14.283 5.477 14.38 5.53395 14.4857 5.56925C14.5913 5.60455 14.7031 5.61741 14.814 5.607ZM11.09 21.407C11.8917 21.4059 12.6602 21.087 13.2271 20.5201C13.794 19.9532 14.1129 19.1847 14.114 18.383V17.177C14.114 16.3749 13.7953 15.6056 13.2281 15.0384C12.6609 14.4711 11.8916 14.1525 11.0895 14.1525C10.2873 14.1525 9.51804 14.4711 8.95084 15.0384C8.38363 15.6056 8.06498 16.3749 8.06498 17.177V18.383C8.06472 19.1857 8.38321 19.9557 8.95045 20.5237C9.51769 21.0917 10.2873 21.4112 11.09 21.412V21.407ZM9.65898 17.177C9.65898 16.7975 9.80975 16.4335 10.0781 16.1651C10.3465 15.8968 10.7105 15.746 11.09 15.746C11.4695 15.746 11.8335 15.8968 12.1019 16.1651C12.3702 16.4335 12.521 16.7975 12.521 17.177V18.383C12.521 18.7625 12.3702 19.1265 12.1019 19.3949C11.8335 19.6632 11.4695 19.814 11.09 19.814C10.7105 19.814 10.3465 19.6632 10.0781 19.3949C9.80975 19.1265 9.65898 18.7625 9.65898 18.383V17.177ZM11.087 22.067C9.42836 22.0696 7.83851 22.7301 6.66625 23.9035C5.49398 25.0769 4.83504 26.6674 4.83398 28.326C4.83441 28.4768 4.87744 28.6244 4.95812 28.7518C5.0388 28.8792 5.15384 28.9812 5.28998 29.046C7.09098 29.9459 9.07667 30.4144 11.09 30.4144C13.1033 30.4144 15.089 29.9459 16.89 29.046C17.0261 28.9812 17.1412 28.8792 17.2218 28.7518C17.3025 28.6244 17.3456 28.4768 17.346 28.326C17.3428 26.6674 16.6822 25.0776 15.509 23.9051C14.3358 22.7327 12.7456 22.0731 11.087 22.071V22.067ZM6.45498 27.824C6.57641 26.6791 7.11718 25.6196 7.97313 24.8497C8.82908 24.0797 9.93967 23.6537 11.091 23.6537C12.2423 23.6537 13.3529 24.0797 14.2088 24.8497C15.0648 25.6196 15.6056 26.6791 15.727 27.824C14.2716 28.488 12.6907 28.8321 11.091 28.8329C9.49133 28.8338 7.91007 28.4914 6.45398 27.829L6.45498 27.824ZM20.537 16.48H30.387C30.5853 16.4614 30.7696 16.3694 30.9038 16.2221C31.0379 16.0748 31.1122 15.8827 31.1122 15.6835C31.1122 15.4843 31.0379 15.2922 30.9038 15.1449C30.7696 14.9976 30.5853 14.9056 30.387 14.887H20.537C20.4261 14.8766 20.3143 14.8895 20.2087 14.9247C20.103 14.96 20.006 15.017 19.9236 15.092C19.8413 15.167 19.7755 15.2583 19.7305 15.3601C19.6855 15.462 19.6622 15.5721 19.6622 15.6835C19.6622 15.7949 19.6855 15.905 19.7305 16.0068C19.7755 16.1087 19.8413 16.2 19.9236 16.275C20.006 16.35 20.103 16.407 20.2087 16.4423C20.3143 16.4775 20.4261 16.4904 20.537 16.48ZM45.359 19.29H20.537C20.4261 19.2796 20.3143 19.2924 20.2087 19.3277C20.103 19.363 20.006 19.42 19.9236 19.495C19.8413 19.57 19.7755 19.6613 19.7305 19.7632C19.6855 19.865 19.6622 19.9751 19.6622 20.0865C19.6622 20.1979 19.6855 20.308 19.7305 20.4098C19.7755 20.5117 19.8413 20.603 19.9236 20.678C20.006 20.753 20.103 20.81 20.2087 20.8453C20.3143 20.8806 20.4261 20.8934 20.537 20.883H45.358C45.4689 20.8934 45.5807 20.8806 45.6863 20.8453C45.7919 20.81 45.889 20.753 45.9713 20.678C46.0537 20.603 46.1195 20.5117 46.1645 20.4098C46.2095 20.308 46.2327 20.1979 46.2327 20.0865C46.2327 19.9751 46.2095 19.865 46.1645 19.7632C46.1195 19.6613 46.0537 19.57 45.9713 19.495C45.889 19.42 45.7919 19.363 45.6863 19.3277C45.5807 19.2924 45.4689 19.2796 45.358 19.29H45.359ZM20.537 25.29H30.387C30.4979 25.3004 30.6097 25.2876 30.7153 25.2523C30.8209 25.217 30.918 25.16 31.0003 25.085C31.0827 25.01 31.1485 24.9187 31.1935 24.8168C31.2385 24.715 31.2617 24.6049 31.2617 24.4935C31.2617 24.3821 31.2385 24.272 31.1935 24.1701C31.1485 24.0683 31.0827 23.9769 31.0003 23.902C30.918 23.827 30.8209 23.77 30.7153 23.7347C30.6097 23.6994 30.4979 23.6866 30.387 23.697H20.537C20.4261 23.6866 20.3143 23.6994 20.2087 23.7347C20.103 23.77 20.006 23.827 19.9236 23.902C19.8413 23.9769 19.7755 24.0683 19.7305 24.1701C19.6855 24.272 19.6622 24.3821 19.6622 24.4935C19.6622 24.6049 19.6855 24.715 19.7305 24.8168C19.7755 24.9187 19.8413 25.01 19.9236 25.085C20.006 25.16 20.103 25.217 20.2087 25.2523C20.3143 25.2876 20.4261 25.3004 20.537 25.29ZM45.359 28.1H20.537C20.4261 28.0896 20.3143 28.1025 20.2087 28.1378C20.103 28.173 20.006 28.23 19.9236 28.305C19.8413 28.3799 19.7755 28.4713 19.7305 28.5731C19.6855 28.675 19.6622 28.7851 19.6622 28.8965C19.6622 29.0079 19.6855 29.118 19.7305 29.2198C19.7755 29.3217 19.8413 29.413 19.9236 29.488C20.006 29.563 20.103 29.62 20.2087 29.6553C20.3143 29.6906 20.4261 29.7034 20.537 29.693H45.358C45.4689 29.7034 45.5807 29.6906 45.6863 29.6553C45.7919 29.62 45.889 29.563 45.9713 29.488C46.0537 29.413 46.1195 29.3217 46.1645 29.2198C46.2095 29.118 46.2327 29.0079 46.2327 28.8965C46.2327 28.7851 46.2095 28.675 46.1645 28.5731C46.1195 28.4713 46.0537 28.3799 45.9713 28.305C45.889 28.23 45.7919 28.173 45.6863 28.1378C45.5807 28.1025 45.4689 28.0896 45.358 28.1H45.359Z" fill="black"/>
</g>
</svg>
