<svg width="20" height="20" viewBox="0 0 20 20" fill="none" xmlns="http://www.w3.org/2000/svg">
<g id="vuesax/bold/location">
<path id="Vector" d="M16.6131 6.8099C16.2562 5.24616 15.3694 3.85404 14.1029 2.86977C12.8365 1.8855 11.2685 1.3697 9.6651 1.4099H9.6571C8.05576 1.36972 6.48974 1.88424 5.22427 2.86633C3.9588 3.84841 3.07166 5.2377 2.7131 6.7989C1.7711 10.9549 4.3131 14.4749 6.6191 16.6899C7.43391 17.4802 8.52445 17.9222 9.6596 17.9222C10.7947 17.9222 11.8853 17.4802 12.7001 16.6899C15.0061 14.4749 17.5511 10.9629 16.6131 6.8099ZM9.6651 10.8419C9.16337 10.8417 8.67297 10.6927 8.25589 10.4139C7.83882 10.135 7.5138 9.73867 7.32193 9.27508C7.13007 8.81148 7.07997 8.30141 7.17797 7.80935C7.27597 7.31728 7.51768 6.86533 7.87252 6.51062C8.22737 6.15591 8.67942 5.91439 9.17152 5.81658C9.66363 5.71877 10.1737 5.76907 10.6372 5.96112C11.1007 6.15316 11.4969 6.47834 11.7756 6.89552C12.0543 7.31271 12.2031 7.80317 12.2031 8.3049C12.2031 8.63815 12.1374 8.96813 12.0099 9.276C11.8823 9.58387 11.6954 9.86359 11.4597 10.0992C11.224 10.3348 10.9442 10.5216 10.6363 10.6491C10.3284 10.7765 9.99835 10.842 9.6651 10.8419Z" fill="#A87B5D"/>
</g>
</svg>
