<svg width="248" height="46" viewBox="0 0 248 46" fill="none" xmlns="http://www.w3.org/2000/svg">
<path d="M54.0681 1.40796V12.06C54.066 13.9047 53.3322 15.6732 52.0278 16.9777C50.7234 18.2821 48.9548 19.0158 47.1101 19.018H38.2161C36.3713 19.0158 34.6026 18.2821 33.298 16.9777C31.9934 15.6733 31.2595 13.9048 31.2571 12.06V1.40796H32.7071V12.06C32.7087 13.5205 33.2896 14.9209 34.3224 15.9537C35.3552 16.9864 36.7555 17.5674 38.2161 17.569H47.1101C48.5706 17.5671 49.9707 16.9861 51.0035 15.9534C52.0362 14.9206 52.6172 13.5205 52.6191 12.06V1.40796H54.0681Z" fill="white"/>
<path d="M217.371 1.40796V12.06C217.369 13.9047 216.635 15.6732 215.331 16.9777C214.026 18.2821 212.258 19.0158 210.413 19.018H201.52C199.675 19.0158 197.907 18.2821 196.602 16.9777C195.297 15.6733 194.563 13.9048 194.561 12.06V1.40796H196.011V12.06C196.013 13.5205 196.594 14.9209 197.626 15.9537C198.659 16.9864 200.06 17.5674 201.52 17.569H210.413C211.874 17.5674 213.274 16.9864 214.307 15.9537C215.34 14.9209 215.921 13.5205 215.922 12.06V1.40796H217.371Z" fill="white"/>
<path d="M76.0611 2.13306H74.6111V19.0171H76.0611V2.13306Z" fill="white"/>
<path d="M152.318 9.8501H129.509V11.2991H152.318V9.8501Z" fill="white"/>
<path d="M130.235 2.13306H128.785V19.0171H130.235V2.13306Z" fill="white"/>
<path d="M152.319 2.13306H150.87V19.0171H152.319V2.13306Z" fill="white"/>
<path d="M86.7409 0.684082H63.9319V2.13308H86.7409V0.684082Z" fill="white"/>
<path d="M240.677 18.7511H225.054V17.3021H240.682C242.202 17.3002 243.659 16.6954 244.734 15.6204C245.808 14.5454 246.412 13.088 246.413 11.5681V11.5551H224.324V8.85507C224.326 6.95112 225.083 5.12568 226.429 3.77939C227.776 2.43309 229.601 1.67593 231.505 1.67407H247.133V3.12307H231.505C229.985 3.12493 228.528 3.7297 227.453 4.80469C226.379 5.87968 225.775 7.33707 225.773 8.85707V10.1091H247.854V11.5731C247.852 13.477 247.095 15.3025 245.749 16.6488C244.403 17.9951 242.577 18.7522 240.673 18.7541" fill="white"/>
<path d="M1.775 19.017L12.442 3.91696L23.109 19.017H24.882L12.441 1.40796L0 19.017H1.775Z" fill="white"/>
<path d="M164.501 19.017L175.168 3.91696L185.836 19.017H187.609L175.168 1.40796L162.728 19.017H164.501Z" fill="white"/>
<path d="M114.369 19.015H102.43C100.813 19.0131 99.2623 18.3699 98.1188 17.2263C96.9752 16.0827 96.3319 14.5323 96.3301 12.915V6.1C96.3319 4.48275 96.9752 2.93227 98.1188 1.78869C99.2623 0.645124 100.813 0.00185268 102.43 0L114.369 0C115.986 0.00185268 117.537 0.645124 118.68 1.78869C119.824 2.93227 120.467 4.48275 120.469 6.1V12.917C120.467 14.5343 119.824 16.0847 118.68 17.2283C117.537 18.3719 115.986 19.0151 114.369 19.017M102.43 1.49C101.208 1.49132 100.036 1.97748 99.1721 2.84176C98.308 3.70605 97.8221 4.87785 97.821 6.1V12.917C97.8229 14.1386 98.3091 15.3097 99.1732 16.1733C100.037 17.0369 101.208 17.5227 102.43 17.524H114.369C115.591 17.5227 116.762 17.0369 117.626 16.1733C118.49 15.3097 118.976 14.1386 118.978 12.917V6.1C118.976 4.8782 118.49 3.7069 117.626 2.84305C116.762 1.9792 115.591 1.49332 114.369 1.492H102.43V1.49Z" fill="white"/>
<path d="M75.311 44.9591C74.021 44.9591 72.7839 44.4466 71.8717 43.5344C70.9595 42.6223 70.447 41.3851 70.447 40.0951C70.447 38.8051 70.9595 37.5679 71.8717 36.6557C72.7839 35.7435 74.021 35.2311 75.311 35.2311C76.493 35.179 77.6567 35.536 78.606 36.2421V36.9111C77.6774 36.1513 76.5108 35.7427 75.311 35.7571C74.1621 35.7571 73.0602 36.2135 72.2478 37.0259C71.4354 37.8383 70.979 38.9401 70.979 40.0891C70.979 41.238 71.4354 42.3398 72.2478 43.1523C73.0602 43.9647 74.1621 44.4211 75.311 44.4211C76.5234 44.4364 77.6977 43.9977 78.603 43.1911V43.8101C78.1594 44.2137 77.639 44.524 77.0729 44.7222C76.5068 44.9205 75.9066 45.0027 75.308 44.9641" fill="white"/>
<path d="M75.3079 45.273C73.9346 45.273 72.6175 44.7274 71.6465 43.7564C70.6754 42.7853 70.1299 41.4683 70.1299 40.095C70.1299 38.7217 70.6754 37.4046 71.6465 36.4336C72.6175 35.4625 73.9346 34.917 75.3079 34.917C76.5614 34.8627 77.795 35.2443 78.7989 35.997L78.9169 36.092V37.587L78.3999 37.152C77.5285 36.4382 76.4332 36.055 75.3069 36.07C74.2521 36.0866 73.2461 36.5173 72.5061 37.2691C71.766 38.0209 71.3513 39.0335 71.3513 40.0885C71.3513 41.1434 71.766 42.156 72.5061 42.9078C73.2461 43.6596 74.2521 44.0903 75.3069 44.107C76.4493 44.1174 77.5545 43.7016 78.4069 42.941L78.9149 42.541V43.954L78.7949 44.049C78.3238 44.4748 77.7725 44.8025 77.1732 45.0126C76.5739 45.2228 75.9388 45.3113 75.3049 45.273" fill="white"/>
<path d="M92.1411 44.828L91.0651 41.994H86.798L85.7101 44.828H85.1851L88.925 35.061L92.678 44.828H92.1411ZM88.925 36.441L87.0101 41.441H90.8431L88.9261 36.441H88.925Z" fill="white"/>
<path d="M93.1361 45.1431H91.9241L90.8491 42.3061H87.0141L85.9261 45.1421H84.7261L88.9261 34.1851L93.1371 45.1421L93.1361 45.1431ZM87.4651 41.1281H90.3851L88.9241 37.3181L87.4631 41.1281H87.4651Z" fill="white"/>
<path d="M104.05 44.824L100.677 40.085H100.323V44.824H99.7961V35.364H102.096C102.422 35.3319 102.752 35.369 103.063 35.4728C103.374 35.5766 103.659 35.7449 103.901 35.9666C104.142 36.1882 104.334 36.4584 104.464 36.7593C104.594 37.0602 104.659 37.3852 104.655 37.713C104.655 39.826 102.975 40.088 101.282 40.088L104.682 44.827H104.052L104.05 44.824ZM102.081 35.898H100.323V39.546H102.095C102.352 39.5701 102.61 39.54 102.854 39.4576C103.099 39.3752 103.323 39.2424 103.512 39.0677C103.701 38.893 103.852 38.6804 103.954 38.4437C104.056 38.2071 104.106 37.9516 104.103 37.694C104.103 37.4383 104.049 37.1856 103.944 36.9524C103.839 36.7191 103.687 36.5107 103.496 36.3407C103.305 36.1707 103.08 36.0431 102.836 35.9661C102.592 35.8891 102.335 35.8645 102.081 35.894" fill="white"/>
<path d="M105.291 45.141H103.891L100.639 40.574V45.141H99.4829V35.05H102.094C102.462 35.0152 102.834 35.0585 103.184 35.1772C103.534 35.2959 103.856 35.4872 104.127 35.7387C104.398 35.9902 104.613 36.2962 104.758 36.6366C104.903 36.977 104.974 37.3442 104.967 37.714C104.967 39.987 103.121 40.34 101.884 40.394L105.291 45.142V45.141ZM100.635 39.241H102.094C102.308 39.2659 102.524 39.2452 102.73 39.1801C102.935 39.1151 103.124 39.0073 103.284 38.8638C103.445 38.7203 103.573 38.5444 103.661 38.3477C103.748 38.151 103.793 37.9379 103.792 37.7227C103.791 37.5074 103.744 37.2948 103.655 37.0988C103.566 36.9029 103.436 36.7281 103.275 36.586C103.113 36.4439 102.923 36.3377 102.717 36.2744C102.511 36.2112 102.295 36.1923 102.081 36.219H100.635V39.241Z" fill="white"/>
<path d="M125.753 44.824L122.38 40.085H122.025V44.824H121.5V35.364H123.8C124.126 35.3319 124.456 35.369 124.766 35.4728C125.077 35.5766 125.363 35.7449 125.604 35.9666C125.846 36.1882 126.038 36.4584 126.168 36.7593C126.298 37.0602 126.363 37.3852 126.359 37.713C126.359 39.826 124.679 40.088 122.986 40.088L126.386 44.827H125.756L125.753 44.824ZM123.784 35.898H122.024V39.546H123.797C124.054 39.5701 124.312 39.54 124.556 39.4576C124.8 39.3752 125.025 39.2424 125.214 39.0677C125.403 38.893 125.554 38.6804 125.656 38.4437C125.757 38.2071 125.808 37.9516 125.805 37.694C125.805 37.4384 125.75 37.1857 125.646 36.9526C125.541 36.7194 125.388 36.5111 125.197 36.3411C125.006 36.1712 124.782 36.0435 124.538 35.9664C124.294 35.8894 124.037 35.8647 123.783 35.894" fill="white"/>
<path d="M126.993 45.141H125.593L122.341 40.574V45.141H121.185V35.05H123.797C124.165 35.0152 124.537 35.0585 124.887 35.1772C125.237 35.2959 125.559 35.4872 125.83 35.7387C126.101 35.9902 126.316 36.2962 126.461 36.6366C126.606 36.977 126.677 37.3442 126.67 37.714C126.67 39.987 124.824 40.34 123.586 40.394L126.993 45.142V45.141ZM122.338 39.241H123.797C124.011 39.2659 124.228 39.2452 124.433 39.1801C124.638 39.1151 124.827 39.0073 124.988 38.8638C125.148 38.7203 125.276 38.5444 125.364 38.3477C125.451 38.151 125.496 37.9379 125.495 37.7227C125.494 37.5074 125.448 37.2948 125.358 37.0988C125.269 36.9029 125.14 36.7281 124.978 36.586C124.816 36.4439 124.626 36.3377 124.42 36.2744C124.215 36.2112 123.998 36.1923 123.784 36.219H122.338V39.241Z" fill="white"/>
<path d="M133.526 44.824V35.364H138.026V35.901H134.062V39.354H138.026V39.931H134.062V44.29H138.026V44.827L133.526 44.824Z" fill="white"/>
<path d="M138.342 45.141H133.212V35.05H138.342V36.215H134.378V39.04H138.342V40.24H134.378V43.97H138.342V45.141Z" fill="white"/>
<path d="M145.959 36.7931V44.8281H145.434V35.2971L152.434 43.5811V35.3641H152.971V44.9861L145.959 36.7931Z" fill="white"/>
<path d="M153.282 45.8351L146.273 37.6431V45.1431H145.12V34.4431L152.12 42.7271V35.0491H153.285L153.282 45.8351Z" fill="white"/>
<path d="M162.672 35.9029V44.8239H162.135V35.8979H160.062V35.3589H164.748V35.8979L162.672 35.9029Z" fill="white"/>
<path d="M162.987 45.141H161.819V36.215H159.746V35.05H165.061V36.215H162.988L162.987 45.141Z" fill="white"/>
<path d="M177.185 44.828L176.109 41.994H171.842L170.754 44.828H170.229L173.969 35.061L177.722 44.828H177.185ZM173.969 36.441L172.052 41.441H175.885L173.969 36.441Z" fill="white"/>
<path d="M178.176 45.143H176.964L175.889 42.307H172.054L170.966 45.143H169.766L173.966 34.186L178.176 45.143ZM172.504 41.128H175.424L173.963 37.318L172.502 41.128H172.504Z" fill="white"/>
<path d="M184.784 44.824V35.364H185.309V44.29H187.948V44.827L184.784 44.824Z" fill="white"/>
<path d="M188.262 45.141H184.47V35.05H185.623V43.975H188.262V45.141Z" fill="white"/>
</svg>
