<svg width="21" height="24" viewBox="0 0 21 24" fill="none" xmlns="http://www.w3.org/2000/svg">
<path d="M20.6 16.983C19.7 16.008 18 14.541 18 9.75C18.0026 8.02924 17.4047 6.36152 16.3094 5.03437C15.2141 3.70723 13.69 2.80385 12 2.48V1.5C12 1.10218 11.842 0.720645 11.5607 0.439341C11.2794 0.158036 10.8978 0 10.5 0C10.1022 0 9.72064 0.158036 9.43934 0.439341C9.15804 0.720645 9 1.10218 9 1.5V2.479C7.31093 2.80412 5.78814 3.70817 4.69401 5.0354C3.59988 6.36264 3.00292 8.02992 3.006 9.75C3.006 14.541 1.306 16.008 0.406 16.983C0.145794 17.2577 0.000534488 17.6216 0 18C-1.57987e-06 18.1975 0.0389948 18.393 0.114752 18.5754C0.190509 18.7578 0.301535 18.9234 0.441459 19.0628C0.581383 19.2022 0.74745 19.3125 0.930132 19.3875C1.11281 19.4626 1.30851 19.5008 1.506 19.5H19.5C19.8978 19.5 20.2794 19.342 20.5607 19.0607C20.842 18.7794 21 18.3978 21 18C20.9993 17.6228 20.8565 17.2596 20.6 16.983ZM3.164 17.25C4.164 15.938 5.25 13.763 5.25 9.778V9.75C5.24961 9.06045 5.38513 8.37758 5.64883 7.74045C5.91253 7.10331 6.29922 6.5244 6.78681 6.03681C7.2744 5.54922 7.85331 5.16253 8.49045 4.89883C9.12758 4.63513 9.81045 4.49961 10.5 4.5C11.1895 4.49974 11.8723 4.63535 12.5094 4.8991C13.1465 5.16284 13.7253 5.54954 14.2129 6.0371C14.7005 6.52466 15.0872 7.10352 15.3509 7.7406C15.6146 8.37768 15.7503 9.06049 15.75 9.75V9.779C15.75 13.762 16.838 15.937 17.836 17.25H3.164ZM10.458 24C10.8553 24.0048 11.2495 23.9307 11.618 23.7822C11.9865 23.6336 12.3219 23.4135 12.6047 23.1345C12.8876 22.8555 13.1124 22.5233 13.2661 22.1569C13.4197 21.7905 13.4992 21.3973 13.5 21H7.5C7.49679 21.7894 7.80607 22.5479 8.3603 23.11C8.91453 23.6721 9.66866 23.9921 10.458 24Z" fill="#0F172A"/>
</svg>
