<svg width="23" height="17" viewBox="0 0 23 17" fill="none" xmlns="http://www.w3.org/2000/svg">
<path d="M22.6782 1.81425L21.6292 0.765251C21.4199 0.557504 21.137 0.440918 20.8422 0.440918C20.5473 0.440918 20.2644 0.557504 20.0552 0.765251L9.05515 11.7722L3.28815 6.00825C3.07891 5.8005 2.79601 5.68391 2.50115 5.68391C2.2063 5.68391 1.9234 5.8005 1.71415 6.00825L0.665154 7.05725C0.457407 7.26649 0.34082 7.54939 0.34082 7.84425C0.34082 8.1391 0.457407 8.42201 0.665154 8.63125L8.26515 16.2312C8.3675 16.3351 8.48947 16.4176 8.62398 16.4739C8.75849 16.5302 8.90284 16.5592 9.04865 16.5592C9.19447 16.5592 9.33882 16.5302 9.47333 16.4739C9.60784 16.4176 9.72981 16.3351 9.83215 16.2312L22.6672 3.38625C22.7716 3.28406 22.8549 3.16221 22.912 3.02769C22.9692 2.89318 22.9991 2.74868 23.0001 2.60254C23.0012 2.45639 22.9732 2.31149 22.918 2.17619C22.8627 2.0409 22.7812 1.91788 22.6782 1.81425Z" fill="white"/>
</svg>
