<svg width="18" height="18" viewBox="0 0 18 18" fill="none" xmlns="http://www.w3.org/2000/svg">
<g id="_icons">
<g id="Group 14149">
<path id="Path 775" d="M0.903001 8.09696H5.057L3.883 6.92296C3.72144 6.75411 3.63241 6.52872 3.63498 6.29504C3.63756 6.06136 3.73153 5.83798 3.89678 5.67274C4.06202 5.50749 4.2854 5.41352 4.51908 5.41094C4.75276 5.40837 4.97816 5.4974 5.147 5.65896L7.856 8.36796C7.946 8.45796 8.037 8.54896 8.037 8.63896C8.12799 8.87103 8.12799 9.12889 8.037 9.36096C7.947 9.45096 7.947 9.54196 7.856 9.63196L5.147 12.341C5.06547 12.4265 4.96741 12.4946 4.85878 12.5412C4.75014 12.5877 4.63319 12.6117 4.515 12.6117C4.39682 12.6117 4.27986 12.5877 4.17122 12.5412C4.06259 12.4946 3.96453 12.4265 3.883 12.341C3.79744 12.2594 3.72933 12.1614 3.68279 12.0527C3.63625 11.9441 3.61225 11.8271 3.61225 11.709C3.61225 11.5908 3.63625 11.4738 3.68279 11.3652C3.72933 11.2565 3.79744 11.1585 3.883 11.077L5.057 9.90296H0.903001C0.66351 9.90296 0.433828 9.80782 0.264482 9.63848C0.0951371 9.46913 0 9.23945 0 8.99996C0 8.76047 0.0951371 8.53079 0.264482 8.36144C0.433828 8.1921 0.66351 8.09696 0.903001 8.09696Z" fill="white"/>
<path id="Path 776" d="M5.06523 14.8139C6.10515 15.3757 7.26827 15.6705 8.45023 15.6719C9.33322 15.6827 10.2096 15.5181 11.0285 15.1877C11.8474 14.8573 12.5925 14.3676 13.2208 13.747C13.849 13.1264 14.3478 12.3873 14.6882 11.5725C15.0286 10.7577 15.2039 9.88345 15.2039 9.0004C15.2039 8.11735 15.0286 7.24308 14.6882 6.42828C14.3478 5.61348 13.849 4.87437 13.2208 4.25379C12.5925 3.63321 11.8474 3.14352 11.0285 2.81309C10.2096 2.48267 9.33322 2.31809 8.45023 2.3289C7.26827 2.33031 6.10515 2.62513 5.06523 3.1869C4.95159 3.25194 4.82613 3.2937 4.69618 3.30974C4.56623 3.32578 4.43438 3.31577 4.30834 3.2803C4.1823 3.24484 4.06458 3.18462 3.96206 3.10317C3.85954 3.02172 3.77427 2.92066 3.71123 2.8059C3.64556 2.69374 3.60342 2.56938 3.58739 2.4404C3.57135 2.31142 3.58176 2.18053 3.61797 2.05571C3.65419 1.93089 3.71544 1.81475 3.79801 1.71437C3.88058 1.614 3.98273 1.5315 4.09823 1.4719C5.44822 0.789205 6.93846 0.429741 8.45123 0.421899C9.58873 0.404529 10.7183 0.613572 11.7743 1.03686C12.8302 1.46015 13.7914 2.08923 14.602 2.88749C15.4125 3.68576 16.0562 4.63726 16.4956 5.68663C16.9349 6.73599 17.1612 7.86227 17.1612 8.9999C17.1612 10.1375 16.9349 11.2638 16.4956 12.3132C16.0562 13.3625 15.4125 14.314 14.602 15.1123C13.7914 15.9106 12.8302 16.5396 11.7743 16.9629C10.7183 17.3862 9.58873 17.5953 8.45123 17.5779C6.92551 17.5835 5.42499 17.189 4.09923 16.4339C3.88283 16.2973 3.72397 16.0861 3.65267 15.8403C3.58136 15.5945 3.60255 15.3311 3.71223 15.0999C3.86499 14.8966 4.08628 14.7556 4.33507 14.703C4.58385 14.6504 4.84327 14.6898 5.06523 14.8139Z" fill="white"/>
</g>
</g>
</svg>
