<svg width="18" height="18" viewBox="0 0 18 18" fill="none" xmlns="http://www.w3.org/2000/svg">
<g id="2703068_call_phone_contact_telephone_icon">
<path id="Path 771" d="M12.8811 10.7151C12.7797 10.7124 12.6788 10.7303 12.5844 10.7676C12.4901 10.8049 12.4043 10.8608 12.3321 10.9321L11.2321 12.0321C11.1816 12.0592 11.1241 12.0703 11.0671 12.0641C9.82212 11.7601 8.70497 11.0707 7.87509 10.0941C6.13309 8.36311 5.75009 6.92411 5.93309 6.74211L7.03309 5.64211C7.76109 4.91411 6.47309 3.40811 5.64009 2.57511C5.26209 2.19711 3.96509 0.965106 3.12309 0.965106C3.02169 0.962431 2.92078 0.980273 2.82644 1.01756C2.7321 1.05485 2.64627 1.11082 2.57409 1.18211L0.368094 3.38711C-0.294906 4.05011 -0.0589064 5.33711 1.06809 7.21211C2.30427 9.15476 3.76168 10.9474 5.41109 12.5541C8.11109 15.2541 11.6791 17.9701 13.5831 17.9701C13.7661 17.9797 13.9491 17.9519 14.1211 17.8885C14.293 17.825 14.4502 17.7273 14.5831 17.6011L16.7931 15.3911C17.5211 14.6631 16.2331 13.1571 15.4001 12.3251C15.0211 11.9471 13.7231 10.7151 12.8811 10.7151ZM13.7981 16.8151C13.7356 16.8506 13.6635 16.8653 13.5921 16.8571C12.4811 16.8571 9.51509 15.0731 6.21009 11.7681C4.62224 10.2247 3.21855 8.50258 2.02709 6.63611C0.988094 4.91011 1.07609 4.25611 1.15709 4.17611L3.22409 2.11011C3.83448 2.43162 4.38596 2.85428 4.85509 3.36011C5.36082 3.82933 5.78346 4.38079 6.10509 4.99111L5.14309 5.95311C4.11309 6.98411 5.42609 9.23511 7.08109 10.8891C8.49709 12.3061 10.0221 13.1891 11.0631 13.1891C11.2381 13.1966 11.4128 13.1687 11.5767 13.107C11.7407 13.0453 11.8905 12.9511 12.0171 12.8301L12.9791 11.8681C13.5894 12.1897 14.1409 12.6124 14.6101 13.1181C15.1158 13.5874 15.5384 14.1388 15.8601 14.7491L13.7981 16.8151Z" fill="white"/>
<path id="Path 772" d="M15.88 2.09009C15.2277 1.43424 14.4517 0.914366 13.5971 0.560583C12.7424 0.206801 11.826 0.0261462 10.901 0.0290881C10.8209 0.0290881 10.7416 0.0448662 10.6676 0.0755215C10.5936 0.106177 10.5263 0.151109 10.4697 0.207753C10.413 0.264397 10.3681 0.331643 10.3374 0.405651C10.3068 0.47966 10.291 0.558982 10.291 0.639088C10.291 0.719194 10.3068 0.798516 10.3374 0.872525C10.3681 0.946534 10.413 1.01378 10.4697 1.07042C10.5263 1.12707 10.5936 1.172 10.6676 1.20265C10.7416 1.23331 10.8209 1.24909 10.901 1.24909C11.6654 1.24856 12.4224 1.39875 13.1287 1.69106C13.835 1.98337 14.4767 2.41206 15.0172 2.95261C15.5577 3.49317 15.9862 4.13498 16.2784 4.84132C16.5706 5.54767 16.7207 6.30469 16.72 7.06909C16.72 7.23087 16.7843 7.38603 16.8987 7.50042C17.0131 7.61482 17.1682 7.67909 17.33 7.67909C17.4918 7.67909 17.647 7.61482 17.7614 7.50042C17.8757 7.38603 17.94 7.23087 17.94 7.06909C17.9431 6.14416 17.7626 5.22782 17.409 4.37315C17.0554 3.51848 16.5357 2.74247 15.88 2.09009Z" fill="white"/>
<path id="Path 773" d="M10.0963 3.66212C10.6498 3.66146 11.198 3.77002 11.7094 3.98159C12.2209 4.19315 12.6855 4.50356 13.0768 4.89502C13.4681 5.28648 13.7783 5.75131 13.9896 6.26286C14.2009 6.77441 14.3092 7.32264 14.3083 7.87612C14.3083 7.95622 14.3241 8.03555 14.3547 8.10955C14.3854 8.18356 14.4303 8.25081 14.487 8.30745C14.5436 8.3641 14.6109 8.40903 14.6849 8.43968C14.7589 8.47034 14.8382 8.48612 14.9183 8.48612C14.9984 8.48612 15.0777 8.47034 15.1517 8.43968C15.2257 8.40903 15.293 8.3641 15.3496 8.30745C15.4063 8.25081 15.4512 8.18356 15.4819 8.10955C15.5125 8.03555 15.5283 7.95622 15.5283 7.87612C15.5291 7.16259 15.3892 6.45591 15.1165 5.79653C14.8439 5.13714 14.4439 4.53799 13.9395 4.03335C13.435 3.52872 12.836 3.12852 12.1767 2.85565C11.5175 2.58277 10.8108 2.44259 10.0973 2.44312C9.93552 2.44312 9.78037 2.50738 9.66597 2.62178C9.55157 2.73618 9.4873 2.89133 9.4873 3.05312C9.4873 3.2149 9.55157 3.37005 9.66597 3.48445C9.78037 3.59885 9.93552 3.66312 10.0973 3.66312L10.0963 3.66212Z" fill="white"/>
<path id="Path 774" d="M9.79562 5.56899C10.4852 5.56899 11.1465 5.84292 11.6341 6.33052C12.1217 6.81811 12.3956 7.47943 12.3956 8.16899C12.3956 8.33078 12.4599 8.48593 12.5743 8.60033C12.6887 8.71473 12.8438 8.779 13.0056 8.779C13.1674 8.779 13.3226 8.71473 13.437 8.60033C13.5513 8.48593 13.6156 8.33078 13.6156 8.16899C13.6161 7.66671 13.5176 7.16925 13.3257 6.70507C13.1338 6.24089 12.8523 5.81911 12.4972 5.46385C12.1421 5.10858 11.7205 4.82681 11.2564 4.63466C10.7923 4.4425 10.2949 4.34373 9.79262 4.34399C9.63083 4.34399 9.47568 4.40826 9.36128 4.52266C9.24689 4.63706 9.18262 4.79221 9.18262 4.95399C9.18262 5.11578 9.24689 5.27093 9.36128 5.38533C9.47568 5.49973 9.63083 5.56399 9.79262 5.56399L9.79562 5.56899Z" fill="white"/>
</g>
</svg>
