<svg width="17" height="18" viewBox="0 0 17 18" fill="none" xmlns="http://www.w3.org/2000/svg">
<g id="3844474_gear_setting_settings_wheel_icon">
<path id="XMLID_224_" d="M8.13538 5.72314C8.78331 5.72314 9.41669 5.91528 9.95542 6.27525C10.4942 6.63522 10.9141 7.14686 11.162 7.74547C11.41 8.34408 11.4748 9.00278 11.3484 9.63826C11.222 10.2737 10.91 10.8575 10.4519 11.3156C9.9937 11.7738 9.40997 12.0858 8.77449 12.2122C8.13901 12.3386 7.48031 12.2737 6.8817 12.0258C6.28309 11.7778 5.77145 11.3579 5.41148 10.8192C5.05151 10.2805 4.85938 9.64708 4.85938 8.99914C4.86043 8.13062 5.20592 7.29797 5.82006 6.68383C6.4342 6.06969 7.26685 5.7242 8.13538 5.72314ZM8.13538 10.9651C8.52421 10.9651 8.90432 10.8498 9.22763 10.6338C9.55093 10.4178 9.80292 10.1107 9.95172 9.7515C10.1005 9.39226 10.1395 8.99696 10.0636 8.6156C9.98774 8.23423 9.8005 7.88392 9.52555 7.60897C9.2506 7.33402 8.90029 7.14678 8.51892 7.07092C8.13756 6.99506 7.74226 7.034 7.38302 7.1828C7.02378 7.3316 6.71673 7.58359 6.50071 7.90689C6.28468 8.2302 6.16937 8.61031 6.16937 8.99914C6.1699 9.5204 6.37721 10.0202 6.74579 10.3887C7.11437 10.7573 7.61412 10.9646 8.13538 10.9651Z" fill="white"/>
<path id="XMLID_242_" d="M7.51092 0.256104H8.75992C9.25678 0.256633 9.73313 0.454242 10.0845 0.80557C10.4358 1.1569 10.6334 1.63325 10.6339 2.1301V2.5101C10.6363 2.84087 10.7692 3.15732 11.0036 3.39066C11.2381 3.62399 11.5551 3.75532 11.8859 3.7561C12.1047 3.75571 12.3194 3.69703 12.5079 3.5861L12.8359 3.3961C13.1206 3.23191 13.4433 3.14535 13.7719 3.1451C14.1008 3.1456 14.4238 3.23239 14.7086 3.39682C14.9934 3.56125 15.2301 3.79755 15.3949 4.0821L16.0189 5.1631C16.142 5.37616 16.2218 5.61137 16.2539 5.85529C16.286 6.09922 16.2698 6.34708 16.2061 6.58472C16.1424 6.82236 16.0325 7.04512 15.8826 7.24027C15.7328 7.43543 15.546 7.59916 15.3329 7.7221L15.0049 7.9121C14.8151 8.02175 14.6575 8.17941 14.548 8.36925C14.4384 8.55908 14.3807 8.77442 14.3807 8.9936C14.3807 9.21279 14.4384 9.42812 14.548 9.61796C14.6575 9.8078 14.8151 9.96546 15.0049 10.0751L15.3339 10.2651C15.7637 10.514 16.0773 10.9231 16.2059 11.4028C16.3345 11.8825 16.2676 12.3936 16.0199 12.8241L15.3949 13.9061C15.272 14.1192 15.1082 14.306 14.9131 14.4558C14.7179 14.6056 14.4952 14.7155 14.2575 14.7792C14.0199 14.8429 13.772 14.8592 13.5281 14.8271C13.2842 14.795 13.049 14.7151 12.8359 14.5921L12.5069 14.4021C12.3187 14.2913 12.1044 14.2326 11.8859 14.2321C11.5541 14.2329 11.2361 14.3651 11.0015 14.5997C10.7669 14.8343 10.6347 15.1523 10.6339 15.4841V15.8641C10.6334 16.361 10.4358 16.8373 10.0845 17.1886C9.73313 17.54 9.25678 17.7376 8.75992 17.7381H7.51092C7.01407 17.7376 6.53772 17.54 6.18639 17.1886C5.83506 16.8373 5.63745 16.361 5.63692 15.8641V15.4841C5.63848 15.3162 5.60566 15.1497 5.54049 14.9949C5.47531 14.8401 5.37915 14.7003 5.25792 14.5841C5.02278 14.359 4.71044 14.2323 4.38492 14.2301C4.16616 14.2304 3.95145 14.2891 3.76292 14.4001L3.43492 14.5901C3.22182 14.7133 2.98653 14.7933 2.7425 14.8255C2.49847 14.8577 2.25049 14.8414 2.01273 14.7777C1.77498 14.714 1.55211 14.6041 1.35688 14.4542C1.16164 14.3043 0.997871 14.1173 0.874923 13.9041L0.250923 12.8231C0.00325558 12.3926 -0.0636106 11.8815 0.0649843 11.4018C0.193579 10.9221 0.507141 10.513 0.936923 10.2641L1.26492 10.0741C1.45472 9.96446 1.61232 9.8068 1.72188 9.61696C1.83145 9.42712 1.88914 9.21179 1.88914 8.9926C1.88914 8.77341 1.83145 8.55808 1.72188 8.36825C1.61232 8.17841 1.45472 8.02075 1.26492 7.9111L0.935923 7.7211C0.506141 7.47223 0.192579 7.0631 0.0639841 6.5834C-0.0646108 6.1037 0.00225565 5.59258 0.249923 5.1621L0.875923 4.0871C0.99887 3.874 1.1626 3.6872 1.35775 3.53739C1.55291 3.38757 1.77567 3.27767 2.01331 3.21397C2.25095 3.15026 2.49881 3.134 2.74273 3.16611C2.98666 3.19822 3.22187 3.27807 3.43492 3.4011L3.76392 3.5911C3.95216 3.7019 4.1665 3.76058 4.38492 3.7611C4.71673 3.76031 5.03472 3.62815 5.26935 3.39353C5.50397 3.1589 5.63613 2.84091 5.63692 2.5091V2.1291C5.63772 1.63242 5.83544 1.15633 6.18674 0.805216C6.53804 0.454104 7.01424 0.256632 7.51092 0.256104ZM11.8859 5.0101C11.2229 5.0101 10.587 4.74671 10.1182 4.27787C9.64931 3.80903 9.38592 3.17314 9.38592 2.5101V2.1301C9.38592 1.96434 9.32008 1.80537 9.20286 1.68816C9.08565 1.57095 8.92668 1.5051 8.76092 1.5051H7.51092C7.34516 1.5051 7.18619 1.57095 7.06898 1.68816C6.95177 1.80537 6.88592 1.96434 6.88592 2.1301V2.5101C6.88709 2.94904 6.77239 3.38051 6.55341 3.76092C6.33443 4.14134 6.01893 4.45722 5.63879 4.67667C5.25864 4.89611 4.82731 5.01134 4.38838 5.01071C3.94944 5.01009 3.51844 4.89363 3.13892 4.6731L2.80992 4.4831C2.71554 4.42801 2.60821 4.39902 2.49892 4.3991C2.38918 4.39913 2.28136 4.42795 2.18625 4.48271C2.09113 4.53746 2.01206 4.61621 1.95692 4.7111L1.33292 5.7931C1.25022 5.93649 1.22778 6.10684 1.27053 6.26675C1.31327 6.42667 1.41771 6.5631 1.56092 6.6461L1.88992 6.8361C2.26924 7.05573 2.58414 7.37123 2.80306 7.75096C3.02198 8.13068 3.13722 8.56129 3.13722 8.9996C3.13722 9.43792 3.02198 9.86852 2.80306 10.2483C2.58414 10.628 2.26924 10.9435 1.88992 11.1631L1.56192 11.3531C1.41854 11.4359 1.31389 11.5723 1.27095 11.7322C1.22802 11.8922 1.25031 12.0626 1.33292 12.2061L1.95692 13.2871C2.01206 13.382 2.09113 13.4608 2.18625 13.5155C2.28136 13.5703 2.38918 13.5991 2.49892 13.5991C2.60854 13.5994 2.71625 13.5704 2.81092 13.5151L3.13892 13.3251C3.5175 13.1053 3.94716 12.9887 4.38492 12.9871C5.03205 12.9902 5.65349 13.2406 6.12192 13.6871C6.36513 13.9193 6.55834 14.1987 6.68972 14.5082C6.82109 14.8178 6.88786 15.1509 6.88592 15.4871V15.8671C6.88592 16.0329 6.95177 16.1918 7.06898 16.309C7.18619 16.4263 7.34516 16.4921 7.51092 16.4921H8.75992C8.92568 16.4921 9.08465 16.4263 9.20186 16.309C9.31907 16.1918 9.38492 16.0329 9.38492 15.8671V15.4871C9.38376 15.0482 9.49846 14.6167 9.71744 14.2363C9.93641 13.8559 10.2519 13.54 10.6321 13.3205C11.0122 13.1011 11.4435 12.9859 11.8825 12.9865C12.3214 12.9871 12.7524 13.1036 13.1319 13.3241L13.4609 13.5141C13.5553 13.5692 13.6626 13.5982 13.7719 13.5981C13.8817 13.5981 13.9895 13.5693 14.0846 13.5145C14.1797 13.4598 14.2588 13.381 14.3139 13.2861L14.9389 12.2041C14.98 12.1331 15.0067 12.0548 15.0175 11.9735C15.0282 11.8922 15.0229 11.8096 15.0017 11.7303C14.9805 11.6511 14.944 11.5769 14.8941 11.5118C14.8442 11.4467 14.7819 11.3921 14.7109 11.3511L14.3819 11.1611C14.0026 10.9415 13.6877 10.626 13.4688 10.2463C13.2499 9.86652 13.1346 9.43591 13.1346 8.9976C13.1346 8.55929 13.2499 8.12868 13.4688 7.74896C13.6877 7.36923 14.0026 7.05373 14.3819 6.8341L14.7099 6.6441C14.781 6.60318 14.8433 6.54864 14.8933 6.48361C14.9433 6.41857 14.98 6.34431 15.0013 6.26509C15.0226 6.18586 15.028 6.10322 15.0173 6.02189C15.0066 5.94055 14.98 5.86213 14.9389 5.7911L14.3139 4.7091C14.2588 4.61421 14.1797 4.53546 14.0846 4.4807C13.9895 4.42595 13.8817 4.39713 13.7719 4.3971C13.6623 4.39684 13.5546 4.42584 13.4599 4.4811L13.1319 4.6711C12.7534 4.89127 12.3238 5.00817 11.8859 5.0101Z" fill="white"/>
</g>
</svg>
