<svg width="18" height="15" viewBox="0 0 18 15" fill="none" xmlns="http://www.w3.org/2000/svg">
<g id="Side_Menu">
<path id="Path 2488" d="M6.56154 12.5H0.901541C0.664917 12.5066 0.439788 12.6035 0.272405 12.7709C0.105023 12.9382 0.00809734 13.1634 0.00154171 13.4C-0.00686602 13.648 0.0829487 13.8894 0.25147 14.0716C0.419992 14.2538 0.653603 14.3621 0.901541 14.373H6.56154C6.80963 14.3722 7.04735 14.2734 7.22288 14.098C7.3984 13.9227 7.49749 13.6851 7.49854 13.437C7.49775 13.1887 7.39878 12.9509 7.22323 12.7753C7.04768 12.5998 6.80981 12.5008 6.56154 12.5ZM16.5615 0H0.900541C0.663917 0.00655563 0.438789 0.103482 0.271406 0.270864C0.104023 0.438247 0.00709694 0.663376 0.00054131 0.900001C0.00395438 1.14469 0.0977781 1.37946 0.263943 1.5591C0.430109 1.73874 0.656864 1.85055 0.900541 1.873H16.5615C16.8042 1.8742 17.0377 1.78094 17.2128 1.61296C17.3879 1.44498 17.4907 1.21547 17.4995 0.973001C17.4933 0.722874 17.3934 0.484188 17.2198 0.304056C17.0461 0.123924 16.8113 0.0154339 16.5615 0ZM11.5615 6.25H0.900541C0.663917 6.25656 0.438789 6.35348 0.271406 6.52086C0.104023 6.68825 0.00709694 6.91338 0.00054131 7.15C-0.00786643 7.39804 0.0819483 7.63937 0.25047 7.82156C0.418991 8.00375 0.652603 8.11208 0.900541 8.123H11.5255C11.6511 8.12632 11.7761 8.10465 11.8932 8.05925C12.0104 8.01385 12.1173 7.94562 12.2078 7.85853C12.2984 7.77144 12.3707 7.66723 12.4206 7.55195C12.4705 7.43666 12.497 7.31261 12.4985 7.187C12.4978 6.93874 12.3988 6.70087 12.2232 6.52532C12.0477 6.34976 11.8098 6.25079 11.5615 6.25Z" fill="#0F172A"/>
</g>
</svg>
