<svg width="12" height="18" viewBox="0 0 12 18" fill="none" xmlns="http://www.w3.org/2000/svg">
<path id="timer" d="M10.894 0L0.86201 0.027C0.748774 0.0268684 0.636624 0.0490747 0.531981 0.0923476C0.427339 0.135621 0.332261 0.19911 0.252191 0.279181C0.17212 0.359251 0.108631 0.454329 0.0653581 0.558971C0.0220852 0.663613 -0.00012114 0.775764 1.04537e-05 0.889C-0.0011139 1.12048 0.088499 1.34318 0.249637 1.50937C0.410774 1.67555 0.630609 1.77199 0.86201 1.778V4.664C0.87259 5.19726 1.03926 5.71573 1.34141 6.15526C1.64355 6.5948 2.06792 6.93611 2.56201 7.137C3.09101 7.349 3.78601 7.452 4.36801 7.637C4.62243 7.70727 4.85922 7.83026 5.06301 7.998C5.14043 8.04997 5.20385 8.12023 5.24763 8.20256C5.29141 8.28489 5.31421 8.37675 5.31401 8.47V9.165C5.31424 9.26207 5.29176 9.35785 5.24835 9.44467C5.20493 9.53149 5.14181 9.60695 5.06401 9.665C4.84993 9.81262 4.61361 9.92504 4.36401 9.998C3.80801 10.183 3.11401 10.286 2.55801 10.498C2.05756 10.7075 1.62986 11.0597 1.32826 11.5107C1.02666 11.9617 0.864499 12.4915 0.86201 13.034V16.064C0.633526 16.064 0.414401 16.1548 0.252838 16.3163C0.0912755 16.4779 0.000510179 16.697 0.000510179 16.9255C0.000510179 17.154 0.0912755 17.3731 0.252838 17.5347C0.414401 17.6962 0.633526 17.787 0.86201 17.787H10.894C11.0096 17.7909 11.1248 17.7716 11.2328 17.73C11.3407 17.6885 11.4392 17.6257 11.5224 17.5453C11.6056 17.4649 11.6717 17.3686 11.7169 17.2621C11.7621 17.1557 11.7854 17.0412 11.7854 16.9255C11.7854 16.8098 11.7621 16.6953 11.7169 16.5889C11.6717 16.4824 11.6056 16.3861 11.5224 16.3057C11.4392 16.2253 11.3407 16.1625 11.2328 16.1209C11.1248 16.0794 11.0096 16.0601 10.894 16.064H10.81V13.034C10.8359 12.5048 10.7012 11.9802 10.4235 11.529C10.1458 11.0779 9.73811 10.7212 9.25401 10.506C8.67101 10.293 8.00401 10.163 7.44801 9.978C7.20646 9.91058 6.98006 9.79755 6.78101 9.645C6.70382 9.59263 6.64066 9.52212 6.59707 9.43965C6.55348 9.35718 6.5308 9.26528 6.53101 9.172V8.45C6.53087 8.35687 6.5536 8.26514 6.59719 8.18284C6.64077 8.10055 6.7039 8.03021 6.78101 7.978C6.98425 7.82532 7.20903 7.70366 7.44801 7.617C8.00401 7.431 8.69801 7.3 9.25401 7.089C9.73528 6.87788 10.1414 6.52613 10.4191 6.07995C10.6968 5.63377 10.8331 5.11403 10.81 4.589V1.752H10.894C11.0115 1.75597 11.1285 1.73626 11.2382 1.69405C11.3479 1.65184 11.448 1.58799 11.5325 1.5063C11.617 1.42461 11.6842 1.32675 11.7301 1.21855C11.776 1.11036 11.7996 0.994029 11.7996 0.8765C11.7996 0.758971 11.776 0.642644 11.7301 0.534445C11.6842 0.426246 11.617 0.328389 11.5325 0.246699C11.448 0.165009 11.3479 0.101158 11.2382 0.0589471C11.1285 0.0167365 11.0115 -0.00397037 10.894 0ZM1.58401 4.5H10.171C10.2137 4.50416 10.2537 4.52296 10.2841 4.55321C10.3146 4.58346 10.3336 4.62331 10.338 4.666C10.335 4.9057 10.2755 5.14132 10.1645 5.35379C10.0535 5.56626 9.89404 5.74961 9.69901 5.889C9.27851 6.17407 8.82002 6.3986 8.33701 6.556C7.83701 6.715 7.34301 6.841 6.91901 7.001C6.57465 7.09306 6.27134 7.29843 6.05801 7.584C6.00501 7.664 5.85801 7.691 5.80701 7.612C5.54868 7.33853 5.22321 7.13752 4.86301 7.029C4.44001 6.871 3.94801 6.744 3.44501 6.584C2.97069 6.4267 2.52144 6.20208 2.11101 5.917C1.91937 5.77625 1.76393 5.59195 1.65752 5.3793C1.55112 5.16666 1.49678 4.93177 1.49901 4.694C1.44701 4.588 1.49901 4.499 1.58301 4.499L1.58401 4.5ZM5.89101 8.064C5.97101 8.064 6.00201 8.095 6.00201 8.174C6.00201 8.253 5.97001 8.314 5.89101 8.314C5.87264 8.31441 5.85439 8.3111 5.83734 8.30425C5.82029 8.29741 5.8048 8.28719 5.79181 8.2742C5.77882 8.26121 5.7686 8.24572 5.76176 8.22867C5.75492 8.21162 5.7516 8.19337 5.75201 8.175C5.72501 8.095 5.78501 8.064 5.89101 8.064ZM5.89101 9.231C5.97101 9.231 6.00201 9.291 6.00201 9.37C6.00201 9.449 5.97001 9.51 5.89101 9.51C5.87256 9.51042 5.85421 9.50707 5.8371 9.50017C5.81998 9.49327 5.80444 9.48295 5.79144 9.46986C5.77844 9.45676 5.76823 9.44115 5.76145 9.42398C5.75468 9.40682 5.75146 9.38845 5.75201 9.37C5.72601 9.286 5.78501 9.227 5.89101 9.227V9.231ZM5.89101 10.399C5.97101 10.399 6.00201 10.458 6.00201 10.538C6.00201 10.618 5.97001 10.677 5.89101 10.677C5.87264 10.6774 5.85439 10.6741 5.83734 10.6673C5.82029 10.6604 5.8048 10.6502 5.79181 10.6372C5.77882 10.6242 5.7686 10.6087 5.76176 10.5917C5.75492 10.5746 5.7516 10.5564 5.75201 10.538C5.72501 10.485 5.78501 10.399 5.89101 10.399ZM5.89101 11.593C5.97101 11.593 6.00201 11.679 6.00201 11.733C6.00201 11.787 5.97001 11.872 5.89101 11.872C5.87256 11.8724 5.85421 11.8691 5.8371 11.8622C5.81998 11.8553 5.80444 11.845 5.79144 11.8319C5.77844 11.8188 5.76823 11.8031 5.76145 11.786C5.75468 11.7688 5.75146 11.7504 5.75201 11.732C5.72601 11.648 5.78501 11.589 5.89101 11.589V11.593ZM5.86201 12.364C5.8912 12.3607 5.92067 12.3671 5.94582 12.3823C5.97097 12.3975 5.99037 12.4206 6.00101 12.448C6.23401 12.7314 6.5421 12.9435 6.89001 13.06C7.31301 13.245 7.80401 13.402 8.30801 13.587C8.79154 13.7303 9.2507 13.9458 9.67001 14.226C9.86565 14.371 10.0251 14.5593 10.136 14.7761C10.2468 14.993 10.306 15.2325 10.309 15.476C10.3048 15.5189 10.2859 15.5589 10.2554 15.5894C10.225 15.6199 10.1849 15.6388 10.142 15.643H1.61201C1.56914 15.6388 1.52906 15.6199 1.4986 15.5894C1.46815 15.5589 1.44921 15.5189 1.44501 15.476C1.44799 15.2325 1.50721 14.993 1.61806 14.7761C1.7289 14.5593 1.88837 14.371 2.08401 14.226C2.49599 13.9506 2.94519 13.7354 3.41801 13.587C3.89468 13.433 4.36734 13.2663 4.83601 13.087C5.20227 12.9784 5.52359 12.7542 5.75201 12.448C5.77751 12.4078 5.81651 12.378 5.86201 12.364Z" fill="#FF6666"/>
</svg>
