<svg width="11" height="10" viewBox="0 0 11 10" fill="none" xmlns="http://www.w3.org/2000/svg">
<path d="M8.0532 6.19995C7.93385 6.19995 7.81939 6.24736 7.735 6.33175C7.65061 6.41614 7.6032 6.5306 7.6032 6.64995V8.74995C7.6032 8.78973 7.58739 8.82789 7.55926 8.85602C7.53113 8.88415 7.49298 8.89995 7.4532 8.89995H1.7502C1.71041 8.89995 1.67226 8.88415 1.64413 8.85602C1.616 8.82789 1.6002 8.78973 1.6002 8.74995V3.04995C1.6002 3.03025 1.60408 3.01075 1.61161 2.99255C1.61915 2.97435 1.6302 2.95781 1.64413 2.94389C1.65806 2.92996 1.67459 2.91891 1.69279 2.91137C1.71099 2.90383 1.7305 2.89995 1.7502 2.89995H3.8502C3.90933 2.90008 3.9679 2.88853 4.02256 2.86596C4.07721 2.8434 4.12687 2.81026 4.16869 2.76844C4.2105 2.72663 4.24364 2.67697 4.26621 2.62231C4.28878 2.56766 4.30033 2.50908 4.3002 2.44995C4.30033 2.39082 4.28878 2.33224 4.26621 2.27759C4.24364 2.22293 4.2105 2.17327 4.16869 2.13146C4.12687 2.08965 4.07721 2.05651 4.02256 2.03394C3.9679 2.01137 3.90933 1.99982 3.8502 1.99995H1.7502C1.47171 2.00048 1.20479 2.11141 1.00796 2.30843C0.811137 2.50544 0.70046 2.77246 0.700195 3.05095L0.700195 8.75095C0.700988 9.02909 0.811899 9.2956 1.00867 9.49218C1.20544 9.68877 1.47205 9.79942 1.7502 9.79995H7.4502C7.72851 9.79942 7.99527 9.68863 8.19207 9.49183C8.38887 9.29503 8.49967 9.02826 8.5002 8.74995V6.64995C8.5002 6.53112 8.4532 6.41712 8.36946 6.33281C8.28571 6.2485 8.17202 6.20074 8.0532 6.19995ZM9.8532 0.199951H6.7002C6.58085 0.199951 6.46639 0.247361 6.382 0.331753C6.29761 0.416144 6.2502 0.530605 6.2502 0.649952C6.25046 0.769218 6.29795 0.883523 6.38229 0.967857C6.46662 1.05219 6.58093 1.09969 6.7002 1.09995H8.7682L4.1332 5.73395C4.09132 5.77575 4.0581 5.82539 4.03543 5.88005C4.01276 5.9347 4.00109 5.99329 4.00109 6.05245C4.00109 6.11162 4.01276 6.1702 4.03543 6.22486C4.0581 6.27951 4.09132 6.32915 4.1332 6.37095C4.17486 6.41314 4.22455 6.44655 4.27934 6.46922C4.33413 6.4919 4.3929 6.50336 4.4522 6.50295C4.5113 6.50306 4.56983 6.49146 4.62441 6.4688C4.679 6.44614 4.72855 6.41288 4.7702 6.37095L9.4002 1.73695V3.79995C9.4002 3.9193 9.44761 4.03376 9.532 4.11815C9.61639 4.20254 9.73085 4.24995 9.85019 4.24995C9.96954 4.24995 10.084 4.20254 10.1684 4.11815C10.2528 4.03376 10.3002 3.9193 10.3002 3.79995V0.649952C10.3002 0.531294 10.2533 0.417436 10.1698 0.333158C10.0863 0.248881 9.97285 0.201006 9.8542 0.199951H9.8532Z" fill="white"/>
</svg>
